<?xml version="1.0" encoding="utf-8"?>
<!-- Generator: Adobe Illustrator 26.3.1, SVG Export Plug-In . SVG Version: 6.00 Build 0)  -->
<svg version="1.1" id="レイヤー_1" xmlns="http://www.w3.org/2000/svg" xmlns:xlink="http://www.w3.org/1999/xlink" x="0px"
	 y="0px" viewBox="0 0 68.76 90" style="enable-background:new 0 0 68.76 90;" xml:space="preserve">
<path d="M64.967,68.65c-2.204-3.559-4.677-6.485-7.497-7.965s-5.957-1.533-9.432,0.619c-2.517,1.559-4.858,4.067-6.62,6.963
	c-6.705-2.7-12.508-8.25-17.031-15.488c-4.61-7.377-7.054-15.179-6.417-22.509c3.35-0.296,6.607-1.269,9.104-2.816
	c3.474-2.152,4.825-4.984,4.756-8.168c-0.069-3.184-1.586-6.702-3.79-10.26c-2.204-3.559-4.677-6.485-7.497-7.965
	s-5.957-1.533-9.432,0.619C7.638,3.831,4.484,7.78,2.75,12.081c-0.475,1.178-0.839,2.383-1.078,3.584
	c-0.578,1.686-1.007,3.482-1.259,5.412C-1.115,32.781,1.408,45.57,11.1,61.081c9.693,15.511,20.081,23.384,31.271,27.142
	c1.944,0.653,3.84,1.062,5.701,1.272c0.939,0.21,1.907,0.357,2.892,0.434c4.623,0.364,9.563-0.7,13.037-2.852
	s4.825-4.984,4.756-8.168C68.688,75.726,67.171,72.208,64.967,68.65z"/>
</svg>
