<svg xmlns="http://www.w3.org/2000/svg" viewBox="0 0 200 150.291"><path d="M198.244 97.716c.207-4.992-.235-10.09-.199-15.098.074-10.1.429-20.199.288-30.3-.133-9.55 1.808-20.004-5.065-27.718-1.018-1.142-2.299-2.218-3.698-2.765a16.215 16.215 0 00-10.082-4.23l-8.095-.434a16.194 16.194 0 00-4.23.329c-8.345 1.769-39.002 8.25-42.852 8.8-3.474.496-30.324-1.519-44.303-4.993-4.988-1.24-10.14-1.572-15.263-1.167-1.368.108-2.724-.008-3.864-.534l1.614-3.459a.733.733 0 00-.812-1.028l-9.408 1.937-6.056-4.781a7.012 7.012 0 003.205-7.324L48.449 0s-.956 8.768-7.012 8.449l-8.606.637H19.444s-3.506-.319-4.781-7.331c-.759-4.173-1.179-.106-1.395 3.872a7.013 7.013 0 004.784 7.033l1.711.57-2.55 4.781s-5.737 4.144-9.244 3.506S0 21.585 0 21.585s2.231 7.583 8.925 7.583 8.925-3.506 8.925-3.506l2.267 20.736.92 6.995c.385 2.928 4.12 5.737 7.074 5.737h4.72s20.4 44.624 24.543 44.624 4.144 2.231 4.144 2.231l6.966 20.575a14.748 14.748 0 011.107 5.606v8.244l-2.869 9.881h8.183l2.017-7.331-.637 7.331h6.908l3.016-19.604c.114-.742.172-1.492.172-2.243v-27.209a2.955 2.955 0 013.474-2.91c9.195 1.642 33.712 5.884 37.326 5.11 3.529-.756 17.225-7.892 22.8-10.844a2.954 2.954 0 013.858.999l13.597 20.864a21.038 21.038 0 013.413 11.487v6.401c0 2.593-.479 5.164-1.414 7.583l-4.005 10.365h7.969l7.65-28.687.352.775a21.036 21.036 0 011.454 12.949l-3.081 14.964h6.694l6.381-23.494c.416-1.53.48-3.134.189-4.693l-4.02-21.538 1.275-27.093 5.061-13.158c.453-1.177.764-2.399.932-3.641-.146 4.395-.419 8.793-.675 13.052-.431 7.159.187 14.351-.283 21.485-.355 5.395 1.134 10.922-.389 16.225-1.335 4.649-3.813 8.579-.161 13.032.307-.515.763-.618 1.002-1.48.32.836.626 1.677.938 2.516a12.922 12.922 0 01.915-5.906c.434 2.489.476 5.046.125 7.549 4.933-7.815.14-17.083.486-25.431z" fill="#fff" opacity=".15"/></svg>