<svg version="1.1" id="レイヤー_1" xmlns="http://www.w3.org/2000/svg" x="0" y="0" viewBox="0 0 300 3.278" xml:space="preserve"><style>.st0{fill:#fff}.st1{fill:#666}.st2{fill:none;stroke:#666;stroke-width:0;stroke-linecap:round;stroke-linejoin:round}</style><path class="st0" d="M134.335.803c1.42-.126 4.538-.177 4.477.038.061-.216.061-.216 2.185-.37-.045.144 1.864.105 3.075.093-1.001-.103-2.376-.12-5.129-.155-2.509.311-7.72-.16-10.071.18 1.704.076 3.366.296 5.463.214zm11.28.945l.37-.086-4.355.135c.883-.07 3.845-.15 3.985-.049z"/><path class="st1" d="M159.672 1.518c-.393.157 1.823.248 1.78.393-.081-.317 3.472-.065 5.383-.104l.767-.243c-1.852-.177-6.533-.1-10.499-.123l2.569.077z"/><path class="st0" d="M163.243 1.699l1.254-.156c-1.046.041-3.469.064-1.254.156zm-2.678-.856c-3.1-.021 1.868.105-1.254.156 1.048-.041 2.258-.052 1.254-.156z"/><path class="st1" d="M173.541 1.332l-6.596.115 2.729.107zm.361.519c-.861-.002-2.217-.091-.985-.175 2.36.192 3.824-.078 6.019.085l-2.097.082c.286.202 4.379-.207 4.269.153 2.839-.253-2.155-.307 1.53-.486-3.474.065-6.041-.013-8.956-.076.844.074 1.189.06 2.38.12-2.074.01-4.872.119-7.295.143 1.313.232 3.103.02 5.135.154zm10.517.051c2.238.019 5.69.027 6.288-.246-2.358-.192-2.776.037-3.841.151-.681-.045-2.918-.064-2.009-.206.329.058-1.447.198-.438.301zm8.787.047l1.632-.241-1.05.041-.122-.173c-.186.043-.971.358-3.21.339 1.167.131 1.565-.026 2.75.034zm.54-1.194c1.516.119 2.403.048 4.148-.02-2.425.024-5.872.016-6.598.116l.19-.043s-2.282.125-3.893.294c2.472-.167 6.883.087 6.153-.347zm-3.102-.021l1.77-.14-1.77.14zm9.488 1.158l-3.426-.079.838.073zm-4.093-.729c2.749.034-1.499-.19 1.087-.185.7-.027-3.796.007-4.004.121.675.045 2.633-.138 2.917.064zm6.33.748l2.819-.181-2.819.181zm7.047.116l.555-.129c2.729.107 6.414-.073 8.399.205-.467-.159 1.136-.329-1.266-.377-.372.085-1.232.084-1.093.185-1.026-.031-.816-.146-1.499-.191-1.764.14-4.497.034-5.913.16.694-.028.861.002 1.371.017-3.002.224-3.526-.324-4.844.048 1.066-.112 2.891.136 4.29.082zm-.247-.879l-2.41-.048c.748-.171 2.941-.008 3.335-.166-.145-.101-2.543-.149-1.663-.219-.293.402-3.288.022-2.041.471-3.121.051-.961-.247-4.25-.225l-.928.214c3.662-.108 4.294.08 7.957-.027zm9.3.063l1.169.132-.634-.189c5.366-.032 8.513.742 11.756.633 4.049-.255 7.814.124 11.944.085 2.013-.163-1.934-.096-2.144-.196.579-.319 1.962.168 2.9-.094.263-.231-4.23-.249-6.004-.388-1.544.033-1.52.104-1.991.235-.391-.129-1.96-.168-2.353-.297-3.217.181-4.901-.161-8.066.034-.987-.175 2.37-.034 1.322-.06l-1.727.004.182.029c-2.348.179-6.686.013-8.199-.105 1.183.06 2.009.205.608.26l-1.148-.204-3.023.296c2.306-.197 4.954.198 5.408-.175zm-3.341-.368c-3.595-.108.428.304-3.514.209l4.152-.02-.638-.189z"/><path class="st0" d="M232.328 1.351l1.778.139c-.967-.285-3.763.096-1.778-.139zm6.561-.002l-.942.262 1.676-.149z"/><path class="st1" d="M244.875 1.665c1.334-.133-.261-.244-1.807-.211 1.393.011 2.121.124 1.807.211z"/><path class="st0" d="M254.736 2.169c-3.014.001 2.672.065.506.301.393-.111 1.919-.26-.506-.301z"/><path class="st1" d="M264.491 2.789c-1.091.05-1.534.004-1.681-.06.79.005 1.422.02 1.681.06zm-37.613-.81a41.28 41.28 0 01-1.058-.007l1.058.007zm.691.005l-.691-.005c.259 0 .49.002.691.005zm22.385.561h-.01c-.08-.009-.155-.014-.235-.025l.245.025zm-95.567-.678c-.585.014-1.038.018-1.401.016.461-.006.928-.011 1.385-.018l.016.002zm-1.623-.363c2.474-.168 2.645.394 6.657.273-1.617.036-3.314.064-5.05.088-2.296-.261 1.777-.138-1.607-.361zm33.456-.31c.049-.003.09-.004.139-.008.243-.009.118-.001-.139.008z"/><path class="st0" d="M43.907 1.778l-.023.072-2.213-.091zm.306.13l3.757.138-22.272.041.722-.099c-.308-.13 18.449.037 17.793-.08zm1.071-.113c2.162-.298 3.593.109 6.245-.102-1.77.141-3.025.296-4.732.22l-1.513-.118z"/><path class="st2" d="M52.711 1.221c1.191.06 2.611-.067 3.284-.022-.414.229-2.262.053-3.284.022z"/><path class="st1" d="M55.911.349c.186-.004.368-.004.551-.002-.218.014-.416.028-.565.043l.014-.041zm-.014.041l-.031.103c-.389-.04-.281-.072.031-.103zm.565-.043c.492-.033 1.075-.067 1.377-.109l-.512-.015c.7-.027 1.934-.111 2.264-.053-1.377-.017-1.399.055-1.44.199l2.236.019c-.421.342-1.933-.019-3.925-.041z"/><path class="st2" d="M63.529.264l-2.301.197C60.594.273 62.67.263 63.529.264z"/><path class="st1" d="M66.917.487c-.536.057-2.774.038-1.418.127-.367.039-.8.031-1.26.03 1.513-.047.091-.278 2.678-.157z"/><path class="st1" d="M64.239.644c-.18.006-.381.01-.649.01.218-.009.437-.01.649-.01z"/><path class="st2" d="M40.195 1.497c.279.027.269.051.147.075l-.147-.075z"/><path class="st1" d="M71.516.699l.862.001c-.247 0-.475.004-.695.01l-.167-.011z"/><path class="st1" d="M0 2.52c3.008.06 5.86.124 10.202-.005-.1-.245 1.746-.069 1.999-.327-4.5.034 16.952-.153 13.362-.262l-1.075.113 1.117-.257c2.156.065 5.107.27 6.572.122.402.08-18.384.014-17.673.087-1.664-.297 25.149-.287 25.839-.42l.299.156c3.333-.166 5.472-.392 8.272-.501l.634.188c-2.054-.062-2.613.067-4.711.148 3.634-.035 4.293.081 7.065.044-.098-.245-2.38-.12 1.113-.257 1.006.103-1.317.371 1.805.32 3.777.066 3.021-.296 6.312-.318l-2.217-.091c1.213-.012 3.475-.065 4.642.067-1.375-.017-4.872.119-4.772.364 1.395-.055 4.475.038 5.69.026l-.742.171c1.33.161 2.095-.082 3.777.066 1.585-.097-.962-.247-.077-.317.328.058 3.406.151 4.475.038-.751-.361-3.655.107-5.621-.242l2.914.067c1.832-.356-4.664.005-3.716-.281 2.187-.37 4.559.355 6.594-.116-1.35-.089-5.664-.098-5.111-.227 1.522.134 2.613-.12 4.714-.166l2.541.167c1.073-.113.208-.115-.634-.188C77.324.898 83.615.653 88.89.908c3.123-.051.392-.158 1.813-.284 1.662.219 4.475.038 6.2.042.514.016 1.444-.199.951-.286L93.5.515c.21-.115-.428-.303-1.985-.278 1.079.42-6.139-.257-6.455.217l.063-.216-5.57.147.165.029c.021-.072-4.709.149-7.787.056.885-.07 6.037.013 3.004-.224 2.282-.125 6.367.071 10.534-.021l-.814-.146c4.379-.206 10.169.065 15.015.017l-1.44.199c1.705.076 3.898.239 5.503.069-2.074.01-1.007-.103-.634-.188 2.798-.109 6.904.015 10.728-.064 0 0-.186.043-.023.072l4.006-.121c1.893.033 2.545.149 3.712.281.7-.027 2.431-.024 1.772-.14-.373-.011-.746-.022-.991-.011 2.025-.218 1.416.064 3.951-.069-1.958.183.61.261.379.447 2.965-.08.275-.331.646-.416 3.598.108 4.061.268 7.677.304.208-.115-2.564-.078-2.87-.207 1.028.031 2.237.019 2.423-.024l-2.217-.091c3.757.137 7.373.174 11.547.082l-.328-.058 2.588.006-.93.214c1.395-.055 2.894.136 3.64-.036l-.514-.016 1.748-.068-1.797.212c2.221.091 5.289-.349 8.903-.312.779.29-6.241.102-6.704.476 1.193.06 3.241.122 3.967.023-.145-.101-1.007-.103-1.872-.105 3.167-.195 7.907.117 9.908-.209l-2.38-.12c2.771-.038 4.552.355 5.482.141l-2.184.37c2.816-.181 6.429-.145 9.063-.283.067-.215-3.8.006-3.616-.036l1.256-.156c4.105.124 1.171.132 6.139.258l.045-.144c1.66.219 6.102-.203 4.43.182l-1.35-.089.116.173 5.739-.118c-.559.129 2.213.091 1.471.263l2.117-.154c.963.247-3.889.294-4.115.481.075.113 1.071.099 1.56.083-2.55.182-3.806-.246-6.341-.252l-1.262.156.069-.215c-1.05.041-1.954.183-2.325.268-2.503-.293-5.197.061-8.978-.004 3.141-.123-2.009-.206-1.473-.262-1.725-.004-5.988.376-7.459.114-1.007-.103 2.115-.154-.286-.202-1.562.026-2.635.138-1.627.241-3.474.065-7.603.013-11.401.019l.906-.142c-2.38-.12-4.687.076-5.941.232-.328-.058-.514-.016-.145-.101-3.033-.237-3.887.294-8.874.24.282.202 2.521.221 4.101.124l-.412.23c4.315.009 9.163-.038 12.657-.175l-1.607.169c3.018.309 2.166-.298 4.995.054 2.099-.082-1.518-.118.065-.216 1.485.066-.381.397 2.105.412-9.331.116-19.955.097-29.726.134-.186.043.329.058.84.074-3.373.31-30.558-.523-31.435.08-.489-.088 1.093-.185-.981-.175-.188.043-.72.099-.231.187-5.255-.332-12.267.013-18.589-.202.141.101-1.256.156-1.279.228-2.17-.235-5.872.016-7.905-.117l.657.117-6.392.001c-.188.043.679.044 1.191.06-1.395.055-1.705-.076-1.842-.176l-2.843.253c-8.331-.42-18.717.234-28.306-.031-1.44.199-2.674.283-5.101.306l1.191.06c-2.468.168-.143-.101-2.241-.019-1.422.127-.434.301 1.499.19 1.209.068.463.137-.402.186C13.398 3.021 6.233 2.886 0 2.52zm291.317.758c-.836-.094 3.306-.082 1.281-.284-6.439-.39-16.898-.079-24.525-.386-2.032-.152-2.574-.156-4.407-.238-.035.033-.039.075.049.112-2.077-.014-5.437.045-7.51-.053-.591.041-1.024.198.106.161-3.155.137-5.445-.291-7.222-.167 1.533.103-1.526.149.306.231-3.308.021-3.01-.531-5.625-.596-.155.043-.316.087.212.1-2.852-.238-8.758.137-9.072-.251l-1.152.162c-1.254-.127-.942-.214-3.031-.266-1.362.061.053.144-.446.203-.575-.157-4.228-.086-5.89-.306-.096-.245 2.961.328 4.611.108.053-.049-.186-.063-.524-.069 8.658.06 15.254.745 22.375.561 1.565.172 2.768.011 3.465-.157-1.285-.078-4.95-.242-5.036.1l-2.227-.222c-.846.017-.826-.329-1.191-.385 1.569.039 3.347-.296 1.23-.42 4.13-.039-1.332.728 2.327.64l.534-.247c-.692.132 2.474.247 3.657.164l-.491-.049c9.736.117 22.73.007 33.499-.074 2.645.614 7.899-.216 10.387.282 1.185-.083-1.687-.218.587-.293 1.138-.037 1.24.123 1.189.169l1.042-.049c.829.595-1.164 1.126-8.508 1.519z"/></svg>