<svg version="1.1" id="レイヤー_1" xmlns="http://www.w3.org/2000/svg" x="0" y="0" viewBox="0 0 200 26.75" xml:space="preserve"><style>.st0{fill:#dab934}.st1{fill:#fff}</style><path class="st0" d="M71.731 17.818H200v-1.143H0v1.143z"/><path class="st1" d="M71.731 17.818H0v1.144h200v-1.144h-73.611z"/><path class="st0" d="M71.731 18.962H0v1.143h200v-1.143h-73.611z"/><path class="st1" d="M71.731 20.105H0v1.144h200v-1.144h-73.611z"/><path class="st0" d="M71.731 21.249H0v1.144h200v-1.144h-73.611z"/><path class="st1" d="M71.731 22.393H0v1.143h200v-1.143h-73.611z"/><path fill="#c0aa6c" d="M126.389 23.536H0v1.144h200v-1.144z"/><path class="st0" d="M103.268 24.247l-.226 1.175 1.444.981 1.303-.619z"/><path class="st1" d="M103.552 22.81l-.284 1.437 2.521 1.537 1.484-.705z"/><path class="st0" d="M103.836 21.373l-.284 1.437 3.721 2.269 1.484-.705z"/><path class="st1" d="M104.121 19.936l-.285 1.437 4.921 3.001 1.485-.705z"/><path class="st0" d="M104.513 18.565l-.108-.066-.284 1.437 6.121 3.733 1.484-.706z"/><path class="st1" d="M104.793 17.125l-.104-.063-.284 1.437 7.321 4.464 1.485-.705z"/><path class="st0" d="M104.947 15.761l-.258 1.301 8.522 5.196 1.235-.586z"/><path class="st1" d="M99.544 22.46h.01l.004-.022z"/><path class="st0" d="M98.604 12.941l-.225 1.155-.263 1.351-.263 1.351-.262 1.352-.263 1.351-.263 1.352-.263 1.351-.263 1.353-.208 1.071 1.316.434.259-1.333.263-1.353.264-1.354.264-1.359.265-1.361.264-1.36.265-1.36.266-1.369.235-1.208z"/><path class="st1" d="M97.216 12.876l-.195.998-.262 1.35-.263 1.349-.262 1.35-.262 1.349-.263 1.35-.262 1.349-.263 1.35-.17.874 1.317.433.208-1.071.263-1.353.263-1.351.263-1.352.263-1.351 1.013-5.209z"/><path class="st0" d="M104.156 13.2l-.154.79-.205 1.055-.073.378-.053.27-.13.669-.095.486-.185.954-.09.461-.19.978-.083.427-.197 1.013-.074.381-.206 1.058-.065.334-.167.86-.048.246-.054.276-.226 1.164-.265 1.363 1.177.387.211-1.066.203-1.028.081-.409.094-.478.19-.959.089-.45.195-.987.085-.428.2-1.009.082-.416.202-1.021.081-.408.203-1.029.082-.415.176-.886.027-.136.085-.429.29-1.467.093-.469z"/><path class="st1" d="M102.768 13.135l-.203 1.044-.272 1.395-.203 1.049-.066.339-.268 1.378-.142.725-.091.469-.074.383-.28 1.44-.09.464-.19.975-.28 1.44-.329 1.693 1.316.434.265-1.363.766-3.938.074-.381.197-1.013.083-.427 1.021-5.251.154-.79z"/><path class="st0" d="M101.38 13.07l-1.142 5.871-.098.504-.051.264-.121.619-.148.761-.262 1.349-.004.022-.197 1.013-.07.356-.324 1.667 1.317.433 1.744-8.967.541-2.783.203-1.044z"/><path class="st1" d="M99.992 13.005l-2.345 12.057 1.316.434 2.417-12.426z"/><path class="st0" d="M87.294 19.559a78.678 78.678 0 01-11.227-5.427c-4.053-2.311-7.91-4.878-11.63-7.605l-.842 1.088c3.763 2.76 7.671 5.363 11.789 7.711a80.071 80.071 0 0011.418 5.518 55.44 55.44 0 006.243 2.009l.794.181.263-1.35-.725-.165a53.98 53.98 0 01-6.083-1.96z"/><path class="st1" d="M87.786 18.275a77.235 77.235 0 01-11.036-5.337c-3.988-2.273-7.794-4.806-11.471-7.5l-.842 1.088c3.72 2.727 7.577 5.295 11.63 7.605a78.571 78.571 0 0011.227 5.427 54.197 54.197 0 006.084 1.959l.725.165.263-1.35-.655-.149a52.147 52.147 0 01-5.925-1.908z"/><path class="st0" d="M88.278 16.992a76.002 76.002 0 01-10.845-5.246c-3.924-2.236-7.68-4.734-11.313-7.395l-.842 1.088c3.677 2.694 7.483 5.227 11.471 7.5a77.394 77.394 0 0011.036 5.337 52.94 52.94 0 005.924 1.909l.655.149.263-1.35-.585-.133a51.619 51.619 0 01-5.764-1.859z"/><path class="st1" d="M88.769 15.708a74.56 74.56 0 01-10.654-5.156c-3.859-2.198-7.563-4.661-11.154-7.289l-.841 1.088c3.634 2.661 7.389 5.158 11.313 7.394a75.947 75.947 0 0010.845 5.246 51.363 51.363 0 005.765 1.859l.585.133.263-1.35-.515-.117a50.135 50.135 0 01-5.607-1.808z"/><path class="st0" d="M89.261 14.424a73.283 73.283 0 01-10.464-5.065C75.004 7.198 71.35 4.77 67.803 2.175l-.842 1.088c3.591 2.627 7.295 5.09 11.154 7.289a74.612 74.612 0 0010.654 5.156 49.694 49.694 0 005.605 1.808l.515.117.263-1.35-.445-.101a48.726 48.726 0 01-5.446-1.758z"/><path class="st1" d="M89.753 13.14A71.791 71.791 0 0179.48 8.165c-3.73-2.124-7.332-4.516-10.836-7.077l-.842 1.088c3.547 2.594 7.201 5.022 10.995 7.183a73.231 73.231 0 0010.464 5.065 48.454 48.454 0 005.446 1.758l.445.101.263-1.35-.375-.085a47.357 47.357 0 01-5.287-1.708z"/><path class="st0" d="M95.372 13.514a45.902 45.902 0 01-5.127-1.658 70.558 70.558 0 01-10.082-4.884C76.498 4.885 72.946 2.528 69.486 0l-.842 1.088c3.504 2.561 7.106 4.954 10.836 7.077a72.004 72.004 0 0010.273 4.975c1.75.69 3.523 1.243 5.286 1.708l.375.085.263-1.35-.305-.069zm17.528 2.194a74.56 74.56 0 0010.654-5.156c3.672-2.092 7.205-4.423 10.633-6.907l-.842-1.088c-3.384 2.451-6.865 4.746-10.474 6.801a73.231 73.231 0 01-10.464 5.065 48.454 48.454 0 01-5.446 1.758l-.783.178-.197.045 1.64 1.021.209-.058a48.88 48.88 0 005.07-1.659z"/><path class="st1" d="M113.392 16.992a76.002 76.002 0 0010.845-5.246c3.736-2.129 7.32-4.495 10.791-7.013l-.842-1.088c-3.428 2.484-6.96 4.815-10.633 6.907a74.612 74.612 0 01-10.654 5.156 49.007 49.007 0 01-5.068 1.66l-.209.058 1.584.986.224-.068a49.397 49.397 0 003.962-1.352z"/><path class="st0" d="M113.884 18.275a77.235 77.235 0 0011.036-5.337c3.8-2.166 7.435-4.567 10.95-7.118l-.842-1.088c-3.472 2.518-7.055 4.884-10.791 7.013a75.947 75.947 0 01-10.845 5.246c-1.296.51-2.621.954-3.961 1.351-.075.022-.149.047-.224.068l1.55.965.244-.076a47.11 47.11 0 002.883-1.024z"/><path class="st1" d="M114.376 19.559a78.678 78.678 0 0011.227-5.427c3.864-2.203 7.55-4.639 11.109-7.224l-.842-1.088c-3.515 2.551-7.15 4.952-10.95 7.118a77.394 77.394 0 01-11.036 5.337 47.8 47.8 0 01-2.883 1.025l-.244.076 1.519.945c.086-.029.172-.057.257-.087.62-.214 1.236-.436 1.843-.675z"/><path class="st0" d="M125.603 14.132a78.623 78.623 0 01-11.227 5.427c-.606.238-1.222.46-1.843.675-.085.03-.172.058-.257.087l1.496.931.267-.1c.277-.103.556-.202.829-.31a80.02 80.02 0 0011.418-5.518c3.928-2.24 7.665-4.711 11.268-7.329l-.842-1.088c-3.559 2.586-7.245 5.022-11.109 7.225zm-20.291 1.015l1.318-.3a47.202 47.202 0 005.286-1.708 71.791 71.791 0 0010.273-4.975c3.545-2.018 6.975-4.279 10.315-6.696L131.662.38c-3.295 2.384-6.675 4.609-10.156 6.59a70.452 70.452 0 01-10.082 4.884 45.902 45.902 0 01-5.127 1.658l-.839.191-.11.025-.29 1.466.114-.022c.047-.008.093-.014.14-.025z"/><path class="st1" d="M106.962 16.182a48.66 48.66 0 005.446-1.758 73.283 73.283 0 0010.464-5.065c3.608-2.055 7.09-4.351 10.474-6.801l-.842-1.088c-3.34 2.417-6.77 4.678-10.315 6.696a72.004 72.004 0 01-10.273 4.975 47.202 47.202 0 01-5.286 1.708l-1.318.3c-.047.01-.092.017-.139.026l-.114.022-.085.43-.027.136.1.062.935.582.197-.045.783-.18z"/><path class="st0" d="M95.827 12.813L93.686 23.82l1.328.375 2.202-11.319z"/></svg>