<svg version="1.1" id="レイヤー_1" xmlns="http://www.w3.org/2000/svg" x="0" y="0" viewBox="0 0 200 143.665" xml:space="preserve"><style>.st0{fill:#333}</style><path class="st0" d="M199.935 75.425c-1.06-.17-1.693-.722-1.371-1.984.257-1.007-.379-1.593-1.23-1.802-1.18-.289-1.152-1.272-1.369-2.098-.176-.672.402-.953.84-1.343.826-.737.677-1.635-.285-2.178-.28-.158-.593-.315-.904-.351-2.256-.263-4.507-.9-6.787-.137-.227.076-.486.065-.731.078-.484.025-.786-.254-.881-.681-.072-.326.084-.625.42-.798a8.656 8.656 0 012.794-.893c1.602-.221 2.833-.94 3.752-2.313.673-1.005.751-1.193-.147-1.98-.295-.259-.883-.443-.664-.878.447-.888.021-1.579-.287-2.323-.233-.561-.253-1.113.06-1.651.197-.339.539-.632.323-1.098-.784-.347-1.617-.217-2.416-.105-.53.074-.97-.044-1.412-.246-.112-.052-.208-.257-.211-.394-.002-.128.097-.326.207-.378.808-.383 1.743-.592 2.423-1.128 1.567-1.235 3.313-2.33 4.22-4.234.222-.052.446-.095.663-.161.06-.018.15-.134.138-.156-.059-.105-.139-.263-.228-.275-.22-.029-.45.011-.676.024-.469-.131-.997-.189-.955-.883.03-.485-.001-.976.058-1.457.059-.486-.17-.786-.54-1.001-.35-.202-.72-.479-1.097-.506-1.136-.08-.795-1.071-1.109-1.65-.373-.688.154-1.048.568-1.426.241-.22.545-.372.782-.596.585-.555.449-1.55-.279-1.82-1.556-.576-3.162-.955-4.824-.601-2.484.53-4.957 1.118-7.43 1.699-.637.15-1.252.392-1.889.543-.431.102-.804-.06-1.04-.458-.234-.395-.142-1.057.259-1.326.4-.268.845-.506 1.304-.644 2.354-.71 4.704-1.435 7.132-1.875 1.128-.204 2.239-.509 3.357-.771.399-.093.49-.361.413-.729-.096-.455.066-.768.479-1.008a2.76 2.76 0 00.724-.64c.315-.387.042-1.122-.421-1.152-.489-.031-.989-.055-1.472.009-1.949.256-3.893.547-5.838.825-.64.091-1.287.316-1.914-.027a.673.673 0 01-.3-.367c-.036-.13.011-.399.087-.427 1.171-.43 2.234-.962 2.841-2.161.109-.214.572-.28.885-.354a51.945 51.945 0 012.407-.507c.406-.076.884-.098.934-.6.058-.59.967-.847.646-1.476-.383-.751-1.154-.347-1.762-.358-.406-.007-.813.095-1.22.153-2.603.371-5.152.988-7.686 1.675-.786.213-1.538.445-2.382.032-.789-.385-1.729-.103-2.6-.539-.945-.474-1.844.458-2.811.587-.728.097-1.436.327-2.161.453-.394.068-.857.115-1.088-.316-.214-.398-.027-.804.186-1.159.123-.205.284-.426.485-.538.667-.372.552-.809.328-1.429-.284-.785-.061-1.09.678-1.23.723-.137 1.46-.204 2.185-.331.121-.021.279-.177.312-.299.175-.661-.683-1.941-1.35-1.987-1.636-.112-3.266-.155-4.862.37-.694.228-1.374.591-2.142.48-1.009-.147-1.946.142-2.9.395a9.644 9.644 0 01-1.928.319c-.353.019-.572-.297-.439-.677.107-.306.289-.586.437-.877 1.811-.407 3.578-1.011 5.456-1.116.372-.021.732-.294 1.091-.466.181-.087.22-.248.115-.419-.08-.131-.16-.315-.28-.355-.22-.074-.48-.117-.705-.074-2.456.472-4.906.97-7.252 1.869-.938.294-1.88.577-2.812.888-.493.164-1.013.284-1.326-.21-.307-.484.088-.947.314-1.359.147-.268.439-.476.703-.656.272-.186.554-.321.557-.718.005-.554.257-1.248.011-1.629-.408-.633-1.174-.309-1.794-.126-.47.139-.925.328-1.391.481a7.12 7.12 0 01-.948.262c-.571.104-1.218-.228-1.413-.738-.213-.557.108-.967.508-1.261.39-.286.865-.454 1.282-.706.208-.125.438-.371.295-.602-.596-.958-.021-1.517.642-2.057.603-.49.863-1.183 1.134-1.87.172-.437-.057-.772-.562-.798-.409-.021-.842-.094-1.226.006-1.24.325-2.469.063-3.663-.122-1.07-.165-2.34-.125-2.991-1.345-.178-.334-.539-.332-.865-.313-.492.028-.984.064-1.472.131-.947.131-1.641-.086-2.39-.837-.757-.759-1.913-1.122-2.894-1.659-2.204.105-4.427-.303-6.613.259-1.198.308-2.483.655-3.633.325-1.069-.306-1.909-.086-2.815.26-2.535.968-5.208 1.413-7.826 2.063-.22.055-.504-.018-.54-.328-.017-.145.013-.352.107-.444.83-.803 1.865-1.291 2.862-1.718.136-1.143.212-2.182-.092-3.175-1.34 0-2.677-.177-3.941.051-1.199.217-2.308.123-3.343-.33-1.361-.596-2.722-.48-4.09-.299-1.133.15-2.243.472-3.367.702-2.199.45-4.141 1.521-6.12 2.506-1.958.975-4 1.453-6.16.834-.614-.176-1.117-.014-1.662.151-2.204.668-4.239 1.696-6.212 2.869-.915.544-1.874 1.149-2.941 1.168-1.714.031-3.206.721-4.673 1.403-3.417 1.588-6.767 3.321-10.149 4.985-.429.211-.819.642-1.351.471-.929-.298-1.57.326-2.262.691-.939.495-1.819 1.106-2.708 1.692-1.982 1.307-3.924 2.678-5.944 3.922-.835.514-1.674 1.013-2.484 1.572-1.966 1.356-3.722 2.957-5.525 4.51-1.365 1.176-2.749 2.345-4.224 3.375a22.249 22.249 0 00-4.024 3.599c-.597.681-1.194 1.346-1.953 1.859-1.563 1.058-3.004 2.27-4.449 3.483-2.523 2.118-4.439 4.786-6.655 7.18-1.218 1.316-2.279 2.78-3.396 4.189-.916 1.155-1.87 2.287-2.694 3.507-.584.865-1.097 1.85-.188 2.866.162.852-.424 1.594-.496 2.478.661-.207 1.141-.435 1.43-.939.919-.703 1.332-1.813 2.112-2.621.216-.223.464-.016.495.247.027.23-.06.473-.096.71.411 1.28.983.804 1.573.143.055-.081.105-.166.158-.248-.055.087-.104.177-.161.262-.36.502-.9.854-1.187 1.418-3.121 3.502-5.921 7.261-8.82 10.942-.537.305-.819.822-1.11 1.332-.324.267-.519.616-.127.909.249.186.551-.031.723-.306l1.08-1.411c.242-.045.5-.166.725-.121 1.214.24 2.015-.306 2.693-1.248a108.651 108.651 0 012.968-3.921c.289-.366.607-.801 1.216-.712.17.619.487 1.318.175 1.883-.865 1.564-1.239 3.368-2.518 4.738-2.469 2.646-4.514 5.628-6.552 8.608-1.203 1.758-2.387 3.529-3.586 5.29-1.57 2.306-3.237 4.552-4.695 6.927-1.327 2.161-2.378 4.49-3.648 6.689-1.006 1.743-.798 3.293.465 4.746.441.507.838 1.006 1.003 1.662.171.685.555 1.168 1.243 1.403.466.159.589.559.504.988-.507 2.566.852 4.421 2.44 6.113.59.628 1.109 1.155 1.111 2.061.001.359.274.564.653.582 2.196.105 3.539 1.479 4.676 3.153.179.264.446.537.294.884-.294.671-.112 1.24.182 1.87.344.737.066 1.443-.424 2.059-.235.051-.394.186-.301.431.058.154.209.127.31-.026.077-.028.158-.049.23-.086.545-.279.891-1.131 1.658-.747.72.36.853 1.17 1.038 1.876.153.582-.081 1.127-.316 1.66-.219.496-.055.938.188 1.396.355.669 1.073 1.078 1.37 1.704.289.608-.206 1.44.219 2.127.083.134.187.256.295.4.208-.123.457-.208.621-.376 1.906-1.95 4.125-3.479 6.439-4.898 1.677-1.028 3.288-2.169 4.704-3.54 1.033-1.001 2.176-1.691 3.629-1.816 1.37-.118 2.485-.727 3.441-1.713a99.115 99.115 0 013.689-3.618c.509-.473.875-1.185 1.691-1.258.317.534.065.978-.18 1.397-.858 1.47-.927 3.123-1.124 4.745-.039.32.01.656.06.978.021.132.133.323.24.35.131.034.365-.027.439-.13.333-.464.605-.97.936-1.435.283-.397 1.105-.268 1.198.209.086.443.046.91.048 1.369 1.134-.896 1.785-2.168 2.579-3.329l.147.006.128-.072c.258.968.347 1.007 1.047.419.108-.091.169-.238.251-.36.676-.245.886-.906 1.259-1.417.918-1.259 2.084-2.242 3.414-3.032.645-.383 1.012-.035.995.9-.717.252-.664.965-.901 1.504-.652-.002-.791.486-.93.973l-.254.445-.003.004c-.237.052-.318.227-.348.441-.244.324-.499.64-.727.975-.142.208-.196.487.078.6.239.099.479-.067.604-.294.075-.136.083-.31.122-.466.372-.367.788-.701.909-1.25a.973.973 0 00.193-.444c.255-.057.345-.242.369-.478l1.459-2.015c.698.129.983.63.805 1.227-.202.68-.591 1.306-.923 1.944-.292.561-.886.948-.954 1.642-.047.125-.08.25-.104.376l-.439 1.59a.798.798 0 00-.354.123c.072.246.176.459.473.486.04 0 .081-.046.122-.119l.383-.375-.001.001.004.005c-.013.041-.017.08-.037.122-.089.171-.185.34-.288.501-.18.239-.369.475-.508.743-.499.614-.245 1.448-.609 2.103-.239.161-.419.36-.437.665-.645 1.392-1.307 2.776-1.92 4.181-.118.271-.07.625-.058.939.009.212.176.301.356.197.202-.117.432-.244.555-.43.675-1.019 1.322-2.057 1.978-3.088.331.155.567.527 1.003.443.417.03.829.032 1.101-.363.231-.335.418-.707.681-1.013.392-.456.871-.713 1.522-.547 1.476.376 2.645-.154 3.793-1.11 1.376-1.144 3.016-1.957 4.266-3.283.105-.111.505-.085.658.027.164.12.316.448.267.63-.102.381-.279.777-.532 1.077-1.002 1.183-2.085 2.3-3.067 3.499-3.128 3.815-5.436 8.192-8.308 12.183-.14.194-.256.436-.286.669-.028.223.017.492.128.685.141.247.41.173.648.092.75-.256 1.178-.81 1.546-1.489.584-1.077 1.21-2.193 2.235-2.878 1.457-.975 2.529-2.321 3.761-3.511 1.533-1.481 3.03-3 4.585-4.456 1.13-1.058 1.207-1.101 2.517-.298.778.477 1.358.401 2.008-.087 1.135-.851 2.001-1.953 2.71-3.151a11.34 11.34 0 011.815-2.309c2.977-2.939 6.108-5.702 9.454-8.216.205-.154.438-.189.726.127-.25.899-.214 1.847.481 2.67.243.287.144.594-.01.911-.48.987-1.27 1.72-2.064 2.421-.739.652-1.085 1.405-1.062 2.361-.432.473-.874.937-1.285 1.428-.063.075-.031.344.043.392.103.067.301.049.432 0 .641-.244 1.061-.708 1.271-1.361 1.282-1.259 2.754-2.273 4.238-3.271.505-.34.912-.196 1.212.313-.016.229-.06.46-.039.685.013.139.121.376.197.38.202.011.501-.014.594-.145.17-.237.218-.561.317-.848.881.104 1.548-.265 2.206-.836a55.679 55.679 0 013.834-3.069c1.323-.956 2.671-1.909 4.118-2.65 1.018-.521 2.044-1.023 3.031-1.604.351-.207.707-.412 1.077-.58.328-.149.662-.084.852.234.175.294.196.671-.044.921a9.924 9.924 0 01-1.288 1.116c-.587.43-1.309.695-1.634 1.424l-.004.009-.397.096a5.168 5.168 0 00-2.028 1.393l-2.037 1.46c-.546.21-1.08.435-1.284 1.059-.086.33.026.451.359.34a3.436 3.436 0 001.509-.884c.765-.34 1.375-.892 1.978-1.454l.977-.371a.387.387 0 00-.011.34c-.151.287-.446.584-.427.86.071 1.029-.44 1.608-1.21 2.216-1.219.962-2.398 2.055-3.152 3.414-.665 1.2-1.768 2.042-2.263 3.414-.455 1.261-1.512 2.298-2.257 3.463-.439.687-.792 1.43-1.175 2.152-.154.289-.351.66-.055.889.231.178.631.232.938.194a2.952 2.952 0 001.144-.386c1.4-.848 2.86-1.631 4.141-2.636 2.263-1.775 4.723-3.232 7.147-4.751a114.283 114.283 0 014.643-2.736c.492-.277 1.072-.6 1.594-.572.682.037.571.886.875 1.336.272.402.631.744.946 1.117.61.724.608 1.223-.034 1.921-.219.238-.455.507-.74.63-1.665.713-2.987 1.972-4.607 2.782-2.182 1.092-4.307 2.344-6.227 3.87-2.38 1.891-4.171 4.35-6.141 6.632-.219.253-.34.589-.094.888.295.359.574.089.828-.096.592-.43.94-1.144 1.658-1.429.352-.216.794-.175 1.144-.4.263-.149.516-.311.712-.547.013-.017.03-.03.043-.047.012.025.037.044.053.067-.216.044-.321.24-.44.417l-.015.534-.888.61c.84.39.864.392.947-.576.667.018.907-.458 1.096-.993.475-.157.796-.474.974-.938 1.089-.725 2.12-1.564 3.278-2.152a148.49 148.49 0 009.46-5.213c4.067-2.45 8.345-4.55 12.547-6.772 2.97-1.571 5.976-3.074 8.945-4.649 2.316-1.229 4.66-2.386 7.152-3.221.461-.154 1.105-.22 1.326-.552.742-1.111 1.95-1.188 3.014-1.488 1.992-.561 3.873-1.32 5.616-2.435 2.01-1.287 4.139-2.367 6.418-3.05 3.065-.92 5.934-2.32 8.923-3.42.296-.109.63-.271.813-.51 1.331-1.743 3.313-2.344 5.249-2.988.71-.236 1.402-.438 1.961-.954 1.246-1.15 2.768-1.71 4.386-2.079 1.517-.345 3.033-.694 4.541-1.074.949-.239 1.86-.548 2.641-1.21.69-.585 1.504-.981 2.445-1.068.312-.029.717-.118.897-.333.949-1.129 2.329-1.457 3.576-2.036.217-.101.414-.244.669-.396-2.02-1.282-2.011-1.227-3.741-.943-2.343.385-4.697.703-7.053 1.001-3.986.505-7.935 1.212-11.818 2.237-.743.196-1.449.156-2.175.179-.128.004-.322-.118-.378-.234-.113-.235-.011-.461.182-.637.626-.57 1.412-.82 2.197-1.041 1.656-.467 3.402-.712 4.968-1.383 2.748-1.177 5.673-1.437 8.534-2.046.229-.049.433-.21.649-.319.4.005.802.043 1.198.008.634-.057 1.417.042 1.814-.461.389-.493.478-1.222.753-2.005-1.051.19-1.913.329-2.765.511-.22.047-.412.225-.617.344-2.684.327-5.211 1.331-7.857 1.825-1.362.254-2.732.521-4.055.921-2.262.685-4.483 1.504-6.739 2.21-.591.185-1.186.679-1.858.283-.265-.156.545-1.164 1.331-1.541.438-.21.938-.284 1.387-.475 1.337-.568 2.862-.717 3.979-1.776.233-.088.418-.226.501-.473l.008-.005.512-.003c.192-.125.382-.253.57-.384.127-.036.256-.068.385-.098.83-.336.833-.341.589-1.364 2.062-.793 4.113-1.615 6.187-2.373 3.311-1.21 6.628-2.283 10.248-2.275 1.675.004 3.405-.417 4.981-1.164.338-.16.496-.466.266-.788-.279-.39-.835-.683-.916-1.089-.139-.692.777-.708 1.07-1.174.442-.7 1.304-1.006 1.738-1.58.555-.735 1.193-1.28 1.879-1.84.282-.221.679-.504.457-1.114zM26.593 54.209c-.03.03-.067.049-.099.074a.234.234 0 00-.026.004c.04-.032.087-.054.125-.09v.012z"/><path class="st0" d="M43.254 123.303c.008.011.01.022.017.033.013.003.021-.001.035.004l.002.001v-.001h.001l-.001-.001c-.001-.03.001-.061.001-.092-.021.017-.037.038-.058.054l.003.002zM4.252 66.41c.26-.174.537-.394.678-.662 1.421-2.688 3.569-4.902 4.951-7.614.146-.286.382-.531.6-.774 2.401-2.681 4.807-5.358 7.211-8.036.047 0 .093-.045.139-.123.238-.225.359-.511.367-.855l-.001-.001a.656.656 0 00-.5.532c-.324-.029-.742.061-.954-.108-.769-.612-1.32-.378-1.875.284-1.894 2.254-4.115 4.221-5.787 6.673C7.422 58.162 5.742 60.587 4 62.965c-.777 1.061-.652 2.137-.366 3.257.053.208.389.342.618.188zm7.66-6.232c.545-.394 1.051-.826 1.392-1.42.715-.546 1.069-1.368 1.585-2.067.266-.184.517-.43.208-.714-.255-.234-.571-.082-.812.145-.626.605-1.169 1.274-1.564 2.054l-1.492 1.93c-2.046 2.345-3.68 4.983-5.384 7.571-.218.331-.34.733-.456 1.117-.035.118.063.338.17.419.097.073.3.058.438.019.596-.172.906-.672 1.231-1.141 1.254-1.811 2.464-3.655 3.765-5.432.559-.764.823-1.576.919-2.481zm82.745 76.382c.041.117.051.305.129.339.226.1.361-.073.468-.252h.001c1.129-.645 2.381-1.091 3.323-2.041.731-.225 1.36-.629 1.952-1.1a.485.485 0 00.327-.395c.44-.515 1.278-.422 1.632-1.068l.391-.291a.476.476 0 00.138-.103h-.001c.282-.021.442-.201.56-.435.121-.076.262-.134.359-.234.155-.158.288-.392.087-.559-.197-.165-.397-.015-.527.184-.242.043-.447.135-.522.397l-.44.222-.597.364a.676.676 0 00-.402.119c-.203.129-.376.31-.622.368a.517.517 0 00-.364.172 6.313 6.313 0 00-.578.342c-.771.329-1.388.86-1.934 1.482-1.063.371-2.161.677-2.914 1.609-.216.042-.332.17-.339.393l-.127.487zM94.561 3.414l.577-.367c.448-.171.903-.329 1.339-.526.088-.04.107-.235.157-.358-.145-.051-.288-.14-.434-.147-.422-.02-.781.159-1.1.425-.4.024-.79.076-1.066.418-.538.132-1.085.251-1.325.89.678.16 1.241-.228 1.852-.335zM16.244 54.528c.061.084.312.136.396.08.461-.312.78-.749.995-1.26-.462.251-.93.493-1.375.771-.071.044-.082.318-.016.409zm1.391-1.181l.067-.036.015-.043c-.016.004-.026.009-.045.013-.01.025-.027.043-.037.066zm2.068-2.078c.361-.275.852-.413.978-.936.182-.146.38-.277.541-.444.094-.098.13-.253.192-.382-.143-.047-.32-.172-.422-.127-.277.122-.521.317-.778.482-.74.267-.468.893-.511 1.407z"/><path class="st0" d="M19.702 51.291l.001-.023-.014.009.013.014zm-.051-3.96a.49.49 0 00.062-.416l-.151-.116a.35.35 0 00-.359.082c-.354.21-.54.515-.522.933l.045.048c.413.007.739-.141.925-.531zm1.788-1.777c.116-.07.272-.137.317-.246.062-.15-.06-.246-.243-.238-.07.112-.152.219-.202.34-.011.027.116.151.128.144zm12.125-33.447c0-.245-.357-.252-.609-.191a.912.912 0 00-.011.389c.25.038.62.035.62-.198zM51.665 136.97c-.436.264-.618.716-.819 1.144-.144.307-.135.654.214.779.143.051.464-.133.571-.297.214-.328.337-.716.498-1.08.143-.263.263-.57.009-.783-.169-.14-.374.031-.473.237zm-8.844-13.257c-.292.281-.605.666-.232.975.395.328.696.041.752-.446.089-.312.119-.619-.07-.906-.304-.077-.365.166-.45.377zM18.71 51.83c-.205.037-.298.185-.191.271.093.075.295.115.391.063.111-.06.167-.223.243-.348-.149.001-.3-.012-.443.014z"/><path class="st0" d="M19.152 51.816h.029l-.02-.018-.009.018zm-8.773 20.687c.165-.099.223-.285.07-.367-.349-.187-.556-.001-.638.354a.508.508 0 00-.136.377l.244.214-.245-.214c-.413.261-.639.651-.765 1.11l-.3.431-.001.001-.326.541c-.317.167-.55.423-.224.715.187.168.401-.117.543-.287.101-.121.165-.273.245-.412l.358-.51.135-.479c.404-.16.531-.502.587-.891.272-.098.394-.316.453-.583zm7.338-19.234c.158-.043.179-.089.049-.139l-.049.139z"/><path class="st0" d="M19.181 51.817l.521-.525-.013-.013-.527.521.019.017zM50.73 124.71l-.024.489c-.331.041-.541.265-.737.509h-.001c-.068.042-.157.068-.202.127-.152.2-.254.448-.073.653.192.218.422.103.599-.075.226-.226.441-.464.66-.696a1.555 1.555 0 00-.334.012l.124-.502c.466-.149.31-.329-.012-.517zM18.726 47.862l-.044-.046c-.284.064-.447.237-.482.528l.001.001c.286-.039.454-.207.525-.483zm1.212-.941l.209-.083c.335-.138.574-.408.296-.698-.279-.291-.556-.03-.736.257a.481.481 0 00-.144.403l.15.115.225.006zm80.974 85.152l.622-.368c-.286-.011-.487.123-.622.368z"/></svg>