<?xml version="1.0" encoding="utf-8"?>
<!-- Generator: Adobe Illustrator 26.3.1, SVG Export Plug-In . SVG Version: 6.00 Build 0)  -->
<svg version="1.1" id="レイヤー_1" xmlns="http://www.w3.org/2000/svg" xmlns:xlink="http://www.w3.org/1999/xlink" x="0px"
	 y="0px" viewBox="0 0 150 112.718" style="enable-background:new 0 0 150 112.718;" xml:space="preserve">
<style type="text/css">
	.st0{fill:#FFFFFF;}
</style>
<g>
	<path class="st0" d="M148.683,73.287c0.155-3.744-0.176-7.568-0.149-11.324c0.055-7.575,0.321-15.149,0.216-22.725
		c-0.1-7.163,1.356-15.003-3.799-20.788c-0.763-0.857-1.724-1.664-2.774-2.074c-2.06-1.885-4.726-3.021-7.561-3.173l-6.072-0.325
		c-1.064-0.057-2.13,0.026-3.173,0.247c-6.259,1.327-29.252,6.187-32.139,6.6c-2.606,0.372-22.743-1.139-33.227-3.744
		c-3.741-0.93-7.605-1.179-11.447-0.875c-1.026,0.081-2.043-0.006-2.898-0.401l1.211-2.594c0.191-0.41-0.166-0.862-0.609-0.771
		l-7.056,1.453l-4.542-3.586v0c1.869-1.15,2.827-3.34,2.404-5.493L36.337,0c0,0-0.717,6.576-5.259,6.337l-6.455,0.478h-7.411h-2.63
		c0,0-2.63-0.239-3.586-5.498c-0.569-3.13-0.884-0.079-1.046,2.904c-0.128,2.366,1.34,4.525,3.588,5.275l1.283,0.428l-1.912,3.586
		c0,0-4.303,3.108-6.933,2.63C3.347,15.66,0,16.189,0,16.189s1.673,5.687,6.694,5.687s6.694-2.63,6.694-2.63l1.7,15.552l0.69,5.246
		c0.289,2.196,3.09,4.303,5.305,4.303h3.54c0,0,15.3,33.468,18.408,33.468c3.108,0,3.108,1.673,3.108,1.673l5.225,15.431
		c0.548,1.334,0.83,2.762,0.83,4.205v6.183l-2.152,7.411h6.137l1.513-5.498l-0.478,5.498h5.181l2.262-14.703
		c0.086-0.557,0.129-1.119,0.129-1.682V84.987v-9.061c0-1.38,1.247-2.425,2.605-2.182c6.896,1.231,25.284,4.413,27.994,3.832
		c2.647-0.567,12.919-5.919,17.1-8.133c1.013-0.536,2.268-0.211,2.894,0.749l10.198,15.648c1.67,2.563,2.559,5.556,2.559,8.615
		v4.801c0,1.945-0.36,3.873-1.06,5.687l-3.004,7.774h5.976l5.737-21.515l0.264,0.581c1.382,3.04,1.764,6.441,1.09,9.712
		l-2.311,11.223h5.02l4.786-17.62c0.312-1.148,0.36-2.351,0.142-3.519l-3.015-16.153l0.956-20.32l3.796-9.868
		c0.34-0.883,0.573-1.799,0.699-2.731c-0.109,3.296-0.314,6.595-0.507,9.789c-0.324,5.369,0.14,10.763-0.212,16.114
		c-0.266,4.046,0.85,8.192-0.292,12.169c-1.001,3.487-2.86,6.434-0.12,9.774c0.23-0.386,0.572-0.463,0.751-1.11
		c0.24,0.627,0.47,1.257,0.703,1.887c-0.121-1.503,0.116-3.034,0.686-4.429c0.325,1.867,0.357,3.785,0.094,5.662
		C152.018,86.499,148.424,79.548,148.683,73.287z"/>
</g>
</svg>
