<svg version="1.1" id="レイヤー_1" xmlns="http://www.w3.org/2000/svg" x="0" y="0" viewBox="0 0 100 100" xml:space="preserve"><style>.st0{fill-rule:evenodd;clip-rule:evenodd}</style><path class="st0" d="M50 .9c-13.3 0-15 .1-20.2.3-5.2.3-8.8 1.1-11.9 2.3-3.3 1.2-6.2 3.2-8.7 5.7-2.5 2.4-4.4 5.4-5.7 8.7-1.2 3.1-2 6.7-2.3 11.9C1.1 35 1 36.6 1 50s.1 15 .3 20.2c.2 5.2 1.1 8.8 2.3 11.9 1.2 3.3 3.2 6.2 5.7 8.7 2.7 2.7 5.5 4.4 8.7 5.7 3.1 1.2 6.7 2 11.9 2.3 5.2.1 6.8.2 20.1.2s15-.1 20.2-.3c5.2-.2 8.8-1.1 11.9-2.3 3.3-1.2 6.2-3.2 8.7-5.7 2.7-2.7 4.4-5.5 5.7-8.7 1.2-3.1 2-6.7 2.3-11.9.2-5.2.3-6.9.3-20.2S99 35 98.8 29.7c-.2-5.2-1.1-8.8-2.3-11.9-1.2-3.3-3.2-6.2-5.7-8.7-2.4-2.5-5.4-4.4-8.7-5.7-3.1-1.2-6.7-2-11.9-2.3C65 1 63.4.9 50 .9zm0 8.9c13.1 0 14.6.1 19.8.3 4.8.2 7.4 1 9.1 1.7 2.3.9 3.9 2 5.6 3.7 1.7 1.7 2.8 3.4 3.7 5.6.7 1.7 1.5 4.3 1.7 9.1.2 5.2.3 6.7.3 19.8s0 14.6-.2 19.8c-.2 4.8-1 7.4-1.7 9.1-.8 2.1-2 4.1-3.7 5.6-1.7 1.7-3.4 2.8-5.6 3.7-1.7.7-4.3 1.5-9.1 1.7-5.2.2-6.7.3-19.8.3s-14.6-.1-19.8-.3c-4.8-.2-7.4-1-9.1-1.7-2.1-.8-4.1-2-5.6-3.7-1.6-1.6-2.9-3.5-3.7-5.6-.7-1.7-1.5-4.3-1.7-9.1-.3-5.2-.4-6.7-.4-19.8s.1-14.6.3-19.8c.2-4.8 1-7.4 1.7-9.1.9-2.3 2-3.9 3.7-5.6 1.7-1.7 3.4-2.8 5.6-3.7 1.7-.7 4.3-1.5 9.1-1.7 5.2-.3 6.7-.3 19.8-.3z"/><path class="st0" d="M50 66.3c-9 0-16.4-7.3-16.4-16.4S41 33.6 50 33.6c9 0 16.4 7.3 16.4 16.4 0 9-7.3 16.3-16.4 16.3zm0-41.5c-13.9 0-25.2 11.3-25.2 25.2 0 13.9 11.3 25.2 25.2 25.2 14 0 25.2-11.3 25.2-25.2C75.2 36 64 24.8 50 24.8zm32.6-.5c0 3.3-2.7 6-6 6s-6-2.7-6-6 2.7-6 6-6 6 2.7 6 6"/></svg>