<svg version="1.1" id="レイヤー_1" xmlns="http://www.w3.org/2000/svg" xmlns:xlink="http://www.w3.org/1999/xlink" x="0" y="0" viewBox="0 0 800 1032" xml:space="preserve"><style>.st0{clip-path:url(#SVGID_2_)}.st0,.st3{fill:#fff}</style><defs><path id="SVGID_1_" d="M-87.6-168h971.5v1374H-87.6z"/></defs><clipPath id="SVGID_2_"><use xlink:href="#SVGID_1_" overflow="visible"/></clipPath><path class="st0" d="M61.4 231.2c3.8 9.1-3.7 21.2 6.9 25 3.1 6 10.7 16.6 3.9 20.4-4.5 8.4-.7 13.6 2.4 20.4h.8c.8 17.4 3.2 36.3-1.3 52.3-.7 2.3 0 8.3-4.5 6.8-7.6-3-15.9 3.1-23.5.1-2.3 2.3-6.1-.7-7.6-.7-.1-12.1.7-18.9-.9-29.5 2.3-3 0-5.3.7-9.1 6-9.9-.1-21.2 5.2-29.6-5.4-11.3-3.9-23.5 1.3-33.3 4.5-2.3 9.8-3.8 9.8-9.1.8-3.8-3.1-18.2 6.8-13.7m551.1 364.6c-.7 3-2.2 4.6-4.5 6.1-3.8 0-6.1-3.8-6.8-6 .7-2.3.7-6.1 3-6.8 4.5-.8 8.3 2.2 8.3 6.7"/><path d="M455.5 826.5l-.2.4c.4 0 .4-.2.2-.4z" clip-path="url(#SVGID_2_)" fill="#251814"/><path class="st0" d="M477.3 682.9l-2.3 3c0-2.3-3-2.3-2.3-4.5 1.6-.8 4.6-.8 4.6 1.5"/><path class="st0" d="M787 650.2c-13.6 5.4-22.7.1-37.1.2-7.6.8-17.4-4.5-22.7 3.9-2.2 10.6.1 22-2.9 31.8l.8.8c-2.9 22.7-9.6 45.5-16.3 67.5-4.5 6.8-12.1 1.6-18.9 5.4-4.5-.7-9.9-3.7-14.4-2.2-10.6-4.5-22.7 3.9-32.6-.6-12.1 4.6-23.5-1.4-34.1-1.3-2.3-5.3 2.2-10.6 4.5-15.9 12.1-4.6 25-.9 38.6-1.7 12.9-3.9 26.5 4.4 37.8-5.5 6-14.4 16.6-21.3 21-37.2-1.5-6.1 4.5-12.1-2.4-15.9-3.1-11.3 2.2-22-.9-34.1-2.3-6-9.1-9-14.4-7.5-6 3.1-8.3 10.6-14.3 14.5-3 5.3-5.2 12.9-4.4 19 7.6 3 15.2 9 24.3 9 5.3 7.5-3 14.4-5.2 22-.7 6.8-9 11.4-12 19-6 7.6-8.4-3.7-15.2-1.4-3.8 1.5-3 5.3-.7 7.6l-1.5.8c-3.1-4.5-6.9-12.1-5.4-18.9 2.3 0 2.3 6 5.3 5.3 5.3-3.8 3.7-13.7 4.4-20.5l-6.1-4.5c0-4.5 0-9.8-.1-13.6-1.5-.7-6.1-3.8-8.3-.7-6.1 0-12.1-1.5-13.7-5.2 3.7-8.4 15.1-.8 22.7-1.6 5.3 0 3.8-6.1 5.3-9.1 11.3-8.4 14.3-27.3 30.2-27.4 6.8 2.2 10.6 8.3 12.2 14.3 2.3 6-.7 14.4 2.4 18.9 12.1-3.1-.1-18.9 6.7-26.5 12.9-.1 19.6-10.7 26.4-19.8 3-3 9.1-4.6 12.1-2.3 6.8-.8 9.9 6.8 16.7 5.2 4.5-2.3 10.6-5.4 10.5-11.4-6.1-3-10.6-7.5-16-11.3 1.5-6.8 9-10.7 13.6-14.5 2.3-3.8-1.6-8.3-3.8-11.3-6.1-3.8-10.6 1.6-16.7.1-4.6-6-1.6-17.4-3.9-23.5-3.8-6-12.1-5.2-17.5-5.2-2.2 6.8-5.2 15.9-3.7 24.3-3 9.1-10.6.8-15.9 1.6-3 2.3-9.8 4.6-10.6 9.1-1.5 3.8-2.2 9.9 1.6 12.9 4.6 1.5 5.3 5.3 10.6 6 9.1 6.8-4.5 13.7-6.7 19.7-3.8 2.3-9.8 6.9-14.4 3.1-1.5-2.3-3.1-6-.8-8.3-3.1-14.4.6-28-2.5-42.4 0-5.3 3.7-9.9 2.2-15.2 3.7-16.7 2.8-38.7 6.5-56.1-1.5-4.5-.8-15.9-.9-20.5 4.4-25-1.8-49.2 1.1-76.5-2.3-3.8-2.3-11.4-3.1-15.9 2.2-19-3.2-34.1-4.1-52.3-7-29.5-6.8-60.8-17.6-86.5-1.5-6.1-4.7-16.6-7.6-22.3h66.3c2.3 5.3-.7 12.4.1 17.7-2.3 3.8-3 7.6-.7 11.4-.7 5.3-6.8 6.1-9.8 9.9-4.5 9.1-.7 15.9.1 24.2-5.2 10.6 1.6 23.5-3.6 32.6 1.5 6.1 2.3 12.9.9 18.2 3.1 5.3-3 12.9 1.6 18.2 10.6-.1 19.7.7 29.5.6 6.8-1.5 4.5-11.4 5.2-17.5-3.9-14.4 2.1-26.5-1-40.9-7.6-9.1-1.6-20.4-2.4-30.3-.1-10.6-17.5-9-13-20.4 3-7.6-.8-17.6 5.2-23.7H790v-57.8H491.4c-1.5 6.8-27.2 48.3-70.2 57.8h182.2l3.5 13c6.9 10.6 6.2 25 11.6 37.1 4.6 17.4 4.7 40.1 10.9 57.5.8 11.4.9 22.7 2.4 34.8.8 1.5.8 5.3.8 5.3h.8c-.7 6.8-1.4 12.9 3.1 18.2-5.2 24.3 6.3 44.7-1.9 66.7 2.3 7.6 4.6 17.4.1 25 0 6.8.8 14.4-.6 22-1.5 10.6.1 24.2-4.4 31.1l-3-1.5c-8.3 2.3-18.2.9-20.4 11.5 2.3 9.1 14.4 4.5 17.5 13.5-1.5 1.5-3.8 1.5-6 2.3 1.6 8.3-6.8 6.1-10.6 10.7-6 3.1-12.1 7.6-19.7 5.4-7.6-3.7-19-6-25.8-2.9-3 3-2.2 4.6-1.5 7.6 6.1-.8 4.6 8.3 9.9 9.8.8 2.3 2.3 5.3 0 6.8l-.8-.8c-5.3 4.6-12.1.1-18.2 2.4-6.1-1.5-12.9-2.2-18.2-1.4-3.8 5.3-10.6 1.6-15.1 6.1-3.8 6.1-7.6 1.6-10.6 8.4-5.3-.7-6 6.1-8.3 9.9-6.8.8-3 13.7-9.8 15.2-3 10.6-1.4 24.2-8.9 28.8-4.5 0 .7-6.8-4.6-6.8-3.8 4.6-9.8 1.6-13.6 5.4-6.1 1.5-9.8 6.9-16.6 6.9-4.5 6.8-10.5 12.2-11.3 21.3-9.8 5.4.1 22-12 24.3-10.6-7.5-25.8-4.4-36.4-5.1-9.8.8-18.9 5.4-27.2 10.7 1.5 1.5 1.5 6.1 3.8 5.3 6-3.1 12.8-9.2 21.2-7.7 9.1 2.2 14.4-6.9 24.2-1.6 3.8-.8 9.9 4.5 15.2 2.2 3.8 5.3 10.6 6 14.5 12 6.8 3 10.7 9.8 14.5 15.8 9.1 2.2 3.1 14.4 12.2 17.4.8 7.6 1.6 14.4-1.4 20.5 0 1.5 1.5 1.5 0 2.3 3.8 4.5.8 10.6 2.3 15.1-3 14.4 2.5 36.4 1 53.8 0 8.3-6 15.9-3.7 25.8l1.5-1.5c-.8 1.5 0 3-.7 3.8h1.5c.8 6.8.1 13.6-2.2 16.7.8 5.3-3 14.4 1.6 17.4-6 9.9-1.4 21.2-3.6 32.6 0 6.1 3.1 5.3 7.6 7.5 2.2-5.3 5.3 2.2 8.3-1.6 3.8 2.3 7.5-5.3 11.4-2.3 9.1-3.1 18.9-6.9 28.7-8.5 8.3-4.6 16.6-6.9 27.2-10 5.3-5.3 13.6-6.1 19.6-10.7 3 1.5 5.3-2.3 6.8-4.6 4.6 2.2 7.5-5.3 12.1-3.8 4.5-5.3 8.3-9.1 15.1-13 3-.8 6-3.1 8.3-6.1 6.1 0 6-7.6 11.3-6.9 9.8-12.2 24.9-21.3 33.9-34.3 6.8-4.6 11.3-11.4 16.6-16.8 12-19 22.5-38 35.3-57.8 3-7.6 2.9-16.7 9-22 6.8-7.6 6-17.5 11.2-26.6 2.9-17.4 8.9-34.1 9.6-50.8 3-9.9-3.2-26.5 8.9-31.1 3.8-.8 2.3 3.8 3.8 5.3-4.5 6.8-2.2 13.6-5.2 22 2.3 12.9-1.4 25-5.1 37.1-2.2 8.3-2.2 19.7-7.4 25l-4.4 19h-1.5c-4.5 6.8-1.4 15.9-7.5 21.2-.7 9.9-7.5 12.2-9 21.3-7.6 3.1-6 13.7-12 16-3.7 9.1-10.5 16.7-15.8 24.3-3.8 4.6-6.8 12.2-12.8 14.5-6 6.8-11.3 12.9-18.1 17.5-6.8.8-4.5 8.4-10.6 9.1-3 6.8-9.8 9.9-14.3 13.7-3.7 7.6-9.1 4.6-14.3 9.9-1.5 7.6-9.1 3.8-11.3 10.7-4.6-1.5-6 3.8-9.1 3.1-6.8 5.3-16.6 8.4-24.2 13-6.1.8-7.6 4.6-12.9 4.6-6 4.6-13.6 6.9-21.2 8.4-2.3-.7-4.5 5.3-6.8 2.3-3 4.6-10.6-.7-12.1 5.4-6.8 2.3-14.4 1.6-20.4 5.4-3.8-1.5-7.6 3.1-10.6.8-3.8 4.6-9.1.8-12.9 4.6-2.3-1.5-6.1 1.5-7.6-.7-2.3-.7-4.5 0-6.1-2.2-.1-17.4-.2-40.9 2.7-59.9h-1.5c-1.6-11.4.6-25 2.1-35.6-2.3-3 3.8-6.8-.1-9.8 3-3.8-2.3-2.3-2.3-6.8 0-1.5.7-4.6 2.3-3.8.7-1.5 3-6.1-.8-6.8.7-4.5-3.9-13.6-.1-17.4.4 0 .8.2.9.4l1.3-2.7c-1.5-3.8 2.2-9.9-3.1-11.3-2.3-3-1.6-8.3-.8-11.4 9.1-3.1-.1-15.2-.1-20.5 6.8-4.6-2.3-7.6-.8-13.6.7-10.6-9.1-10.6-13-18.1-2.3-7.6-9.1-9-13.7-14.3-5.3-3-9.1-4.5-14.4-7.5-10.6 3.8-19-4.4-28 .1-14.4 6.9-24.9 15.3-36.2 25.9-5.3 5.3-1.4 15.2-8.2 19.7v-.8c-3.7 12.9 1.7 26.5-2.8 39.4.9 32.6.3 60.6-.3 92.4-.7 3.8.8 8.3-.7 12.9 2.3 9.1.1 20.5.2 30.3-4.5 3.1 2.3 9.8-2.2 12.1 4.5-.8 1.5 5.3 2.3 7.6-5.3 9.1-14.4-4.5-20.5-2.9-6.1 1.5-6.8-4.5-11.4-1.5-3.1-3.8-7.6-3-10.6-6-3.8 3.1-7.6-2.2-10.6-1.5-8.3-3-17.4-5.2-24.3-10.5-3-2.3-7.6.8-8.4-3.7-7.6-1.5-12.2-8.3-19-8.2-6.1-1.5-9.9-9-16.7-11.3-4.5.8-8.4-6-12.2-6-2.3-5.3-8.3-1.5-9.9-7.5-6.8 1.6-10.6-7.5-15.2-11.3-6.8 2.3-6.1-6.8-10.7-9-12.2-9.8-20.6-24.9-32.7-33.9.7-8.3-9.2-12.1-13.7-17.4 0-7.6-9.1-9.8-9.9-16.6-8.3 0-3.8-12.1-10.7-14.3-.1-12.1-11.4-15.1-11.5-26.5-2.3.8-3-3.8-4.6-5.3-2.3-4.5 1.5-12.1-5.4-12.9-6.9-16.6-10.8-34.8-12.4-53-3.8-3.8-1.6-10.6-2.4-15.9 3-11.4-3.9-18.2-.9-28.8 1.5-3 1.5-7.6 6-7.6.8 2.3 3 2.3 3.1 4.5-.7 6.8-3 12.9.1 19.7 0 4.5-.7 6.8.1 10.6 6.1 11.3 3.2 24.2 6.2 36.3 7.6 6 3.9 18.9 10.7 25.7.8 12.9 10.7 17.4 10.8 30.2 4.6 2.3 6.1 9.1 8.4 13.6 5.3.7 3.8 7.6 6.1 12.1 5.3 1.5 5.3 8.3 8.4 12.1 6.1-.8 2.3 12.1 10.7 12.8 2.3 6.8 8.4 5.3 8.4 12.8 7.6 3.7 13.7 14.3 20.5 18.1 2.3 5.3 8.4 3.7 8.4 10.6 1.5 3 4.6 3 6.8 3.8 3.8 5.3 8.4 10.6 14.5 13.6 3.1 8.3 14.4 7.5 17.5 17.3 12.2 6 23.6 15 35.7 20.3h3c6.1 6 12.9 9 20.5 9.7 7.6 6.8 18.2 7.5 26.6 12 3.8-1.5 6.8 4.5 10.6 1.5 2.3 4.5 7.6.7 10.6 4.5 2.3.7 8.4 3.7 10.6-.8-.8-5.3 2.2-14.4.7-20.5h-1.5c-.8-5.3 3-10.6.7-14.4 3-3.8 3-11.4.7-17.4 3.8-3.8-4.6-6-1.6-12.1 4.5-1.5.7-11.4 3-15.2-1.5-3 .7-6.8-.8-9.1 4.5-10.6-4.7-22.7.6-33.3 3.7-25-5.6-57.5 8.7-78.8 1.5-4.6 6.8-5.3 4.5-10.6-5.3-1.5-7.6-9.8-13.7-5.2-5.3-8.3 10.6-9.1 2.2-15.9-1.5-.8-4.6-1.5-6.1 1.5-3.8-3.8-3.1-9.8-4.6-15.1-5.3-3-3.8-11.3-3.9-15.1 1.5.7 5.3 4.5 6.1 5.3 3-11.4-6.2-20.4-7.7-32.5-3.1-5.3-9.2-12.1-13.7-17.4-9.1-5.3-15.2-15.8-26.6-15.8-8.4-3.7-22.7-2.9-31.8.2-3-1.5-7.6 2.3-11.4 1.6-7.5 5.3-18.1 16.8-27.2 10.7l-7-28.8c-1.5-2.3-3.1-6-2.3-9.8 6.8-6.9.7-16.7 9.7-23.5 6.8-3.1 16.6-4.6 23.4-6.9l3-9.9c-.8-9.1-11.4-3-16.7-6.7-.8-4.5-.1-9.8 3.7-13.7 0-3.8-4.6-4.5-6.1-6.8-12.9-5.2-18.9 12.2-26.4 19.1-7.6-5.3-.8-17.4-9.2-22.7-6 6.1-15.9 6.1-23.4 10-7.6 2.3-4.5 13.7-9 17.5-1.5 3-2.2 7.6.8 10.6 14.4-.8 24.2-.9 38.6-4.7 3-2.3 8.3-3.8 9-8.4 5.3-3.8 6-12.9 14.3-14.5 5.3 8.3-8.3 15.2-1.4 22.7 4.6 1.5 10.6-1.6 15.9-2.4 2.3.7 1.5 3 2.3 5.3-5.3 1.5-13.6 2.3-19.7 2.4-8.3 2.3-6.8 12.9-6.7 19-5.3-1.5-3 6.8-9.1 5.4-6.1-3-1.6-10.6-4.6-15.1-7.6-4.5-18.9-1.4-25.7 2.4-3.8 6.8 4.6 7.6 4.6 14.4 3.1 6-5.3 6.1-8.3 6.1-9.9-.7-5.4-12.9-9.2-18.9-11.4-3.7-9 9.1-15.1 15.2-7.5 15.2-1.3 32.6 1 48.5 4.5 0 2.3 6.8 5.4 9.8l4.5-2.3c8.3-3.1 12.8-7.6 15.8-16 4.5-5.3-4.6-9.8-2.4-16.7.7-3 3.8-2.3 6-3.8 5.3 1.5 8.3 2.2 9.9 8.3 7.6 2.2 9.9.7 16.7-1.6 4.5-3.1 7.6 1.5 9.9 4.5-3.8 6.8-15.1 3.9-18.9 11.5-9.8.8-3.7 15.2-12.8 17.5-12.1 3.1-26.5.1-37.9 5.5-12.9-4.5-5.4-20.4-12.3-29.5-2.3-8.3-.8-15.1-4.7-22.7-12.1-3-24.2 1.6-36.4-.6-6.8 1.6-4.5 10.6-9.8 10.7-1.5 4.6-4.5 8.4-8.3 10.6-9.1-4.5 3.7-14.4-4.6-18.9-2.3-.7-5.3-3-8.3-1.5-5.3-1.5-18.2 4.6-16.7-6.7 4.5-3.1 11.3-3.1 16.7-2.4 4.5 0 9.8-1.6 11.3-5.4-1.5-4.5-.8-12.1-5.4-15.1-2.4-17.4-11.6-37.8 5.8-50.8 2.3-2.3 4.5-6.8 8.3-5.3 2.3 1.5-.7 5.3-.7 6.8-8.3 4.6-6 12.2-7.5 19 .8 5.3 1.6 8.3 7.6 12.1 8.3-6.1 15.1-15.2 25.6-21.3 3 2.3 4.6 6.8 3.1 9.1-6.8 7.6-17.4 14.5-21.1 23.6.8 10.6-5.2 22.8 6.2 27.2 12.1-3.9 21.2-.1 34.8-4.7 9-9.1 9-21.3 14.2-32.6-1.6-10.6 6.7-23.5-1.7-31.1-6.1.8-4.6-6.8-9.9-7.5-1.5-6.1-7.6-6-8.4-12.1-.8-3 1.5-5.3 3.8-5.3 2.3 5.3 9.9.7 10.6 7.5 6.1 1.5 6.1 9.8 12.9 11.3 6-4.6 7.5-12.2 9-19.7 0-3.8 6-5.3 2.2-9.9.7-3.8 3.8-6.8 7.5-6.9 3 0 3 3 3.8 4.5-.7 3.8 0 8.3-3.7 10.6-1.5 5.3.8 13.6-2.9 19-.7 2.3 0 6.8 3.1 6 6.1 3.8 7.6-3.8 14.4-2.3 3.8-1.5 9.9 1.5 12.1-2.3l-4-47.7c-2.3-9.8-4.7-21.2-.2-30.3-4.6-3.8 2.2-9.1-2.3-11.4 2.2-6.1-2.3-13.6-.1-20.5-1.6-7.6 1.4-16.7 2.1-25 1.4-14.4-1.7-32.6 2.8-49.3l1.5-3c1.4-19.7 5.9-38.7 8.8-57.6 1.4-20.5 8.5-43 16.6-62.9 0 0 114.9 1.6 123.3 0-29.5-9.2-60.8-42.7-60.9-57.8H14.9l-1.2 57.8h110.6c-2.2 11.4-.6 30.6-8.2 38.3.1 26.5-9.6 45.5-8.7 69-.7 5.3-6.8 10.6-3.7 14.4 1.5 1.5-1.5 6.1.8 7.6-7.5 20.5-2 44.7-4.2 65.9.8 6.8-3 15.2.1 22-5.3 7.6 2.4 15.1-2.9 22.7 1.6 11.4 5.4 25.7 2.5 39.4 0 2.3-.7 6.1-3.7 7.6-3 4.6-3 9.9.1 15.2 6.8 0 4.6 14.4 11.4 12.8-3 3 1.5 6.1-1.5 7.6l1.5.8c.8 16.7 7.7 30.3 1 46.2-6 11.4-17.4 2.4-27.2 6.2-4.6-.7-6.8-4.5-6.9-8.3-2.3-10.6 6-17.5 12-22.8 1.5-5.3 9.8-6.1 10.5-12.2-2.3-6.8-3.9-14.4-11.5-17.4-3 .8-6 2.3-7.6 4.6-7.6 1.6-9.8 15.2-18.1 9.9.7-10.6 10.5-16 10.5-25.8-3.8-2.3-6.8-6-12.2-6.8-9.8.1-12.8 12.2-18.8 18.3 1.6 9.1-13.6 13.7-4.4 21.2 3.1 12.9 1.6 25 8.5 35.6-.7 6.1-9.8 2.3-12.9 4.6-5.3 3.1-9.1-5.3-12.9.1-3 6.1-3.7 15.9.1 22.7 7.6 2.2 16.7-1.6 25 2.9.8 6.1-6 6.8-4.5 12.9 1.5 3.8 2.3 5.3 6.1 6.8-11.3 3.1-22 2.4-35.6 3.2-1.5 2.3 0 4.5-3 5.3 1.5 1.5-2.2 6.1 1.5 6.8 1.5 5.3 3.1 10.6-.7 15.2-2.3 2.3 0 4.5 1.5 6.1.1 15.9 3.2 30.3 4.8 46.2 6.1 6.8 2.4 18.2 8.5 25.7-.7 15.2 12.2 23.4 13.1 37.8 5.3 1.5 3.9 13.6 6.9 17.4 5.3 2.2 3.8 9.1 6.9 13.6 6.1 2.2 5.4 12.1 10.7 15.9 1.6 11.4 9.1 6.8 9.9 17.4 6.8 1.5 5.3 8.3 8.4 12.8 6.8-.8 4.6 9.1 9.9 9.8.8 8.3 10.6 7.5 10.7 15.1 6.8 0 6.1 9.8 12.2 8.3 1.6 7.6 7.6 6.8 10.7 14.3 6.1 0 5.3 7.5 11.4 8.3 3.8 7.6 15.2 10.5 19 18.1 6.1-.8 4.6 6 9.1 4.5 2.3 6.8 9.9 6 12.9 11.3l.8-.8c3.8 4.5 4.6 4.5 9.1 6 .8 6.8 10.6 3.7 12.9 8.3 3.8 5.3 9.1 6.8 16 8.3 1.5 4.5 6.8 2.2 9.1 6.8 6.8-.8 12.2 7.5 19 6.7 4.6 7.6 15.9 3 22.8 9 6.1-.8 9.1 6.8 14.4 3 3.1 4.5 8.3 1.5 9.9 6l2.3-1.5c9.1 2.2 19 2.9 27.3 7.4 7.6-2.3 15.2 3.7 22.7 2.9 6.8 3 14.4.7 21.2 2.2 3-.8 5.3 2.2 7.6.7 10.6 3.7 28-.9 40.2 2.1l4.5-1.5c10.6 3.7 21.2-3.9 31.8-.9 5.3.7 9.8-1.6 15.1-1.6 3.8-.8 9.8-3.8 13.6-1.6 3-1.5 8.3-.8 11.3-3.8 11.4 2.2 19.7-6.2 30.3-5.5 3.8-3.8 9.1-1.6 12.9-4.6 4.5 0 9.1-2.3 13.6-6.1 6.1-.8 12.9-5.4 18.9-4.6 4.5-5.3 12.9-5.4 17.4-9.9 4.5-1.5 10.6-3.1 13.6-6.1 5.3.7 6-6.9 11.3-6.1 1.5-5.3 9.1-2.3 11.3-7.6 5.3 3 5.3-6.1 10.6-5.4 1.5-6.1 9.1-3.8 12.1-8.4 4.5-3.8 9.1-6.1 12.1-9.9 5.3-3.8 12.8-9.2 18.9-13.7 9.8-12.9 23.4-21.3 35.4-32.8 10.5-17.5 25.6-30.4 36.1-48.7.7-7.6 9.8-8.4 9-16.7 6-6.1 5.2-15.2 11.3-20.5 18.8-37.2 30.7-79.7 32.7-124.4-2.2-12.9 12.1-33.5-5.4-37.2zm-100.6 19.5l-.8-5.3c2.3 4.5 8.3 2.2 12.1 4.5-2.2 2.2-7.5 2.3-11.3.8zm33.1-43.4c6-6.8 12-16 17.3-23.6l-.8-4.5c-5.3-6.8-21.3-7.5-16.8-18.1 8.3-6.9 18.2 12 23.5-.1l3.7-25.8c1.5-2.3 3.8-2.3 5.3-1.5 3.1 6.8-3 13.7 3.1 18.9-2.2 6.1 3.1 9.8 6.1 12.8 4.5-.8 9.8-9.1 14.4-3.1-3.7 7.6-20.4 10.7-12.8 22.8 4.6 2.2 5.3 6 10.6 6.8l-.7 1.5-21.2-6c-11.3 6.9-21.1 27.4-38.5 23.7-1.6-3.7 4.5-2.2 6.8-3.8zm-102.6 92.2c-4.6-1.5-6.8-4.5-10.6-6.8-5.3 3.1-7.6-4.5-11.4.1-.8-3-4.6-2.2-6.8-3.7-3.1-3.8-7.6-8.3-5.4-14.4 5.3 1.5 9.8-2.3 15.2-.1-3 1.5-6 7.6-3 11.4 6.8 3 12.9 6 20.5 4.4 8.4 6 12.9 7.5 21.3 11.3 4.6 3 15.1-2.4 15.2 5.2-14.5.1-21.4-9-35-7.4zm-14.5-24.2c2.3-2.3 5.3-1.5 8.3 0-2.2 3.8-4.5-1.5-8.3 0zm33.3 2.1c-4.5-.7-9.8 0-13.6-2.2 5.3-2.3 13.6-1.6 19.7-.1 0 2.3-3.8 2.3-6.1 2.3zm14.5 12.9c-3.8 6.8-11.4 1.6-16.7.8-2.3-1.5-4.6-1.5-6.1-3 7.6-2.3 19-5.4 22.8 2.2zm-6.9-25v-.8c3-1.5 6.8 0 10.6 1.5v1.5c-6.8 3.8-9.1-4.5-15.1.8-1.5 0-1.5-3-3.8-2.3-1.5 0 1.5-3 4.5-3.8l3.8 3.1zm15.7-25.8c-3.8-2.3-13.6 3.9-12.1-3.7 3-4.6 6.8.7 11.4-.1 1.5.7 1.5 3 .7 3.8zm11.3-14.5c-3.8 5.3-10.6.8-16.7 1.6-4.6-3-1.6-7.6.7-10.6 5.3 0 14.4.7 17.5 6l-2.3 2.3.8.7zm12.8-13.7c-8.3 3.1-13.7-3-22-3.7-3.8-2.3-.8-4.5.7-6.1 6.8 1.5 14.4 4.5 22 6.7.8.8.8 3.1-.7 3.1zm-63.3-86.8c3-2.3 7.6-3.1 11.4-1.6 7.6 5.3 21.3 9 29.6 5.9 3.8-1.5 9.1-5.4 6-11.4-8.4-7.5-18.3-15.8-19.8-26.4.7-3.8 5.3-3.8 8.3-5.3 14.4 3 7.7 26.5 24.4 22.6 2.3-3 6-7.6 9.8-2.3 5.3 3.8.8 11.4-3 14.4-4.5 1.5-6 6.8-3.7 10.6l4.6 4.5 5.5 29.5-1.5.8c-1.5 12.1 6.2 24.2-2.9 35.6-3.8-.7-6.1-3.8-6.1-6.8-4.6-15.9.5-40.9-14.6-49.2-5.3-.7-11.4-1.5-16.7.1-6.8-.7-10.6 9.9-18.1 9.2-1.5 1.5-3.8-.7-6.1-.7-6.1-10.6 15.1-8.4 9.8-18.2-5.5-4.5-17.6-3.7-16.9-11.3zm-33.9 41.1c3.8 3 10.6 2.2 15.1-.8 1.5-7.6 12.8-7.6 14.4.7 1.6 9.8 14.4 3 19.7 4.4l4.6 1.5c2.3 8.3-9.8 4.6-9 12.2-3.8.8-6.8 7.6-10.6 3.1-6 4.6-12.1-1.5-18.9-.7-6.1.8-7.6-2.2-15.2-2.2-10.6-.7-4.6-14.4-13-18.1 2.3-5.4 9.1-.9 12.9-.1zm-9.7 23.5c2.3 3 8.3.7 9.9 4.5-4.5 5.3-6 16.7-9 25.8 1.5 1.5.8 5.3 3.8 5.3 8.4 3.7 15.9-1.6 22 4.4 3.8.7 9.1-1.6 8.3-6.1 0-9.1 6.7-14.4 7.5-23.5 3.8-3.8 9.1-4.6 14.4-3.1 1.6 7.6-3 15.9-6.7 22-3 9.1-2.2 18.2-9.7 25.1-19-6.7-37.9-6.6-56.1-11.1-.2-15.2 8.1-31.1 15.6-43.3zm-15.2.1c5.3-3.1 3.8 5.3 3.1 8.3-6.8 6.9-6 16.7-12 23.5 0 6.1-3 12.9.9 18.2 6.9 6.8 16.7-.1 22.8 5.2 6.1 0 13.6 1.4 18.2 3.7 12.1-2.3 29.6 8.9 35.6-7 1.4-13.6 8.9-28.1 15.7-41 3 0 6.8.7 5.3 4.5-11.3 10.7-8.9 28.8-18 41 0 6.1-2.2 12.9-9 13.7-12.1.8-22-7.5-35.6-2.8-8.4-6-22-1.4-31.9-7.4-6.1-1.5-12.9 1.6-15.9-4.5-1.5-3.8 1.5-6.8 3-9.9.6-16.6 11.9-30.3 17.8-45.5zm-18.5 74.3c-5.3-1.5-11.3 3.8-15.9-3.7 4.5-3.8 11.4-.8 16.7-1.6 9.1-1.6 15.9.7 22.7 1.4 0 3-4.5 3.1-4.5 3.8-4.6-5.2-12.9 3.9-19 .1zm6.9 12.1c-5.3 6.1-12.9-1.4-18.2 4.6-3 2.3-1.5-3-2.3-4.5 4.5-7.6 12.9-1.6 20.5-.1zm-13.9-46.1c1.6 6.8-5.3 3.8-6 9.1h-5.3l-1.6-12.9c4.5-1.5 11.4-1.5 12.9 3.8zm-3.9-13.6c2.3 3 7.6-3.1 6.8 3-2.3 1.5-5.3-.7-6.8-.7v-2.3zm-1.3 34.1c-3.8 1.5-8.3.8-12.1 2.3-1.5 0-3.8-1.5-3-3.8v-.8c4.5 3.1 14.3-8.3 15.1 2.3zm20.9-61.5c.8 5.3-4.5 3.8-6.8 4.6-4.6-3-10.6.1-15.2.1.8-9.9 14.4-3.9 22-4.7zM521 619c6.8.7 15.9-.1 22.7 2.2 0 1.5 1.5 3.8-.7 5.3-12.9-1.5-20.4.9-31.1-2.9l-1.5 1.5c-3.9-9.1 6.8-2.3 10.6-6.1zm.8 13.6l1.5.7c-2.3.8-4.5 1.5-6.8 1.6-1.5 3-4.6-1.5-6.8.8-2.3-.7-6.1.8-8.3-2.2 5.2-4.6 13.6-.8 20.4-.9zm-17.3 22.8c1.5.7 6.8-.8 6.8 3-6.1 0-10.6 7.6-16.6 3.9-2.4-7.5 6.8-4.6 9.8-6.9zm-59.7 40.5c3-1.5 6.1-2.3 9.8-3.1 1.5-.8 3-2.3 3.8-5.3-2.3-3.8 0-6.8 3-9.1 7.6 0 16.6-6.9 21.2 1.4 1.5 0 3 2.3 6.1 1.5.7-3.8 4.5-4.6 8.3-3.1h.8c-2.2 11.4-15.9.8-20.4 10-6.8 0-.7 17.4-12.1 11.4-2.3-3.8-6.8-2.2-10.6-4.5-5.3-.7-3.8 6.8-9.1 4.6-2.3 0 0-2.3-.8-3.8zm5.5 35.6c-6 3.1-7.6-11.3-12.2-9-.8-7.6 14.4-.8 11.3-9.2-2.3-.7-4.6-2.2-4.6-4.5-.8-1.5 1.5-2.3 3-2.3 2.3 1.5 6.8.7 6.8 4.5-5.9 5.3 1.7 13.6-4.3 20.5zm9.2 20.4c-1.5-5.3-1.6-8.3 1.5-12.9 6.8 1.5 2.3 12.9 9.9 15.9v1.5c-3.8.8-6.8-4.5-11.4-4.5zm13.6-17.5c-.8-3.8-1.5-6.1-6.1-6-.8-6.1-5.4-13.6.7-18.2 3.8 3 12.9-3.9 12.1 3.7-.7 6.8-7.6 1.6-9 9.1 1.5 3 .8 6.8 4.6 7.6 3.8.7 11.4-2.3 11.4 4.5-1.5 3.8-5.3 2.3-8.3 4.6-3.9.8-4.7-3-5.4-5.3zm6.9 21.9c-.8 0-2.3-.7-3-3 3-.8 6-4.6 9.1-1.6 6-2.3 9.1-6.9 14.3-9.9l3-3.8c-2.2 11.4-13.6 16.8-23.4 18.3zm21-41l-.7 2.3-4.5-.7c-2.4-3.1 5.2-5.4 5.2-1.6zm2.2-18.9c-1.5 1.5-1.5 3.8-3 5.3-3.8.8-6.8-2.2-10.6-3 0-.8-.8-1.5-1.5-2.3 2.3-3 6.8 0 9.1-1.6 1.5 1.5 4.6 1.5 5.3-.8.7-3.8-.8-10.6 5.3-9.1 1.5 3 8.3 0 6.1 5.3-4.7.8-6.2 7.7-10.7 6.2zm26.6 23.3c-2.3-3.8-6.9-6.8-11.4-7.5-.8.8-3 .8-3-1.5 6-3.8 17.4-2.4 15.9 7.5 1.5 6.1-3 8.3-3.7 13.7-4.5 3.8-12.9-1.4-18.9 3.1 1.4-9.9 15.8-6.9 21.1-15.3zm14.6 35.5c-4.6-1.5-8.4-7.5-13.7-6.7-6.1-3-9.8 0-15.1 3.1-.8-.8-3-3-3.8-.7v-3c6.1-.8 12.9-5.4 18.9-3.9 3-2.3 6.1.7 7.6 3 2.3.7 6.8.7 7.6 4.5l-1.5 3.7zm.5-42.4v-6.1c6.1-.8 13.6-1.6 16.7 4.5 2.3 0 3.8 1.5 3.8 3 1.5-1.5 3.8.7 5.3-1.5 0-2.3-2.3-6.8-5.4-9.8-5.3-1.5-8.4-6-12.9-9 4.5-1.5 9.8-6.9 14.4-5.4 6-3.8 12.9-3.1 18.2-6.2h3.8c-2.3 3.8-8.3-1.5-7.6 4.6-5.3-2.2-7.6 3.8-8.3 6.9-3 10.6 8.4 12.8 9.2 21.2h6.1v2.3c-9.1-1.5-16.7-2.2-25.8-2.1-4.5 2.3-8.3-.7-12.9-.7-3.1.6-3.1-.2-4.6-1.7zm32.7 22.6l-3 3c0-1.5-2.3-3 0-3.8l3 .8zm1.4 11.5c-3.8 3.7-9.7 5.2-14.1 6.8-7.6-.7-3.1-11.3-10.7-15.9 0-4.5-3.8-9.1-.1-11.4 3.8-1.5 5.3 3 6.8 5.3 3.1 5.3-3.7 12.9 3.1 16.7 4.9-.8 11.5-4.4 15-1.5.1-.1.2-.1.2-.1l.8.8c-.3-.5-.7-.5-1-.7zm1.7 10.4c-1.5-3 2.3-2.3 3.8-3.8 1.5 0 3 0 3.8 2.3-1.5 1.5-5.3 2.3-7.6 1.5zm9.8-14.4c-.8-3-4.6-5.3-2.3-8.3 4.5-1.5 12.1-.8 13.7 4.5v5.3c-3.8 0-8.3 1.5-11.4-1.5zm-1.6-25c3.8 2.3 11.4-.8 15.2 3.7 3.8.7 6.1 3.8 9.9 6-2.3.8-4.6-.7-6.8-2.2-7.7-.7-13-3-18.3-7.5zm-390.8 31.5l-5.3-3.8c-7.6 2.3 0 6.8-1.5 11.4-5.3-1.5-9.1-2.2-14.4-.7-.8-.8-2.3-2.3-1.5-3.8 8.3.7 7.5-17.5 16.6-6.9 6-2.3 3-13.7 10.5-13.7l1.5 3c-1.4 4.7-4.4 10-5.9 14.5zm-13.7-15.1c-3-2.3-5.3-5.3-5.4-10.6l1.5-1.5c2.3.7 4.6 3.8 5.3 6.8-.6 1.6.9 4.6-1.4 5.3zm6.7-28.8l1.5-2.3c.8.8.8 1.5.8 2.3h-2.3zm20.6 38.6c1.5 1.5.7 2 0 2.8-.1.8-.7 1.7-.7 1.7 0-.8.4-1.3.7-1.7.1-.7-.1-1.3-1.5-1.3.8-.8-.8-17.4 7.5-8.4-3 1.5-6 3.1-6 6.9zm-2.5-50.8c-2.3-4.5 2.2-4.6 3.8-6.1 3-.8 6.1-.8 9.1.7-3.1 3.1-8.3 9.2-12.9 5.4zm6.1 15.9c-.8-6.1 5.3-7.6 9.8-9.9 5.3-.8 10.6-3.8 15.9-3.9 3.8 4.5 5.4 12.1 11.4 13.6-3.7 12.9-18.9 9.2-27.9 16.1h-2.3c-.8-4.5 5.3-4.6 4.5-9.1-4.5-2.3-8.3-2.3-11.4-6.8zm12-26.6c2.3-.8 4.5-1.5 5.3 1.5-.7 1.5-3 1.5-5.3 1.5-.7 0-.7-2.2 0-3zm1.2 70.5c-.8-3-3.8-2.3-6.1-3.8 1.5-2.3 4.5-.8 6-3.1 4.5-.8 6.8 3.8 8.4 6.8-1.5 5.3-5.3 0-8.3.1zm24.9-18.3c-9.8 6.1-19.7 1.6-29.5 3.9l-3-1.5c1.5-2.3 3.8-6.1 8.3-5.3 9.1 0 16.7 2.9 24.2-2.4 0 1.5 2.3 1.5 2.3 3l-2.3 2.3zm12-13.7c-1.6-8.3 9.8-6.1 15.1-6.9l1.5 1.5c-6.8-.8-9 11.4-16.6 5.4zm5.4 16.6c0-7.6 8.3-6.1 12.8-7.6.8 1.5 2.3 1.5 1.5 3.8-6.8-1.5-8.2 7.6-14.3 3.8zm43.2-5.5c-2.3 3-6 5.3-7.5 8.4 2.3 8.3 18.2-2.4 14.5 11.3l-13.6 2.3c-3.1-6.8 2.2-14.4-5.4-18.2-1.5-3 1.5-5.3 3.8-4.6 3.6 0 5.9-1.5 8.2.8zm-6.4-59.1c3 1.5 2.3 6 2.3 6.8-1.5 0-4.6-3.7-2.3-6.8zm-5.4-9.8l-2.3.8v-2.3c1.6 0 1.6.7 2.3 1.5zm2.5 29.5c-3.8 3-12.9 3.1-10.6 9.1 4.6 9.1 12.1-5.4 12.9 5.2-.7 5.3-9.1 0-7.5 6.9 0 9.1 10.6-.8 12.2 6-3 3.8-7.6.8-12.1 2.3-1.5-.8-3-3-4.6-1.5l-11.4-4.5c.7-5.3 12.1-4.6 7.5-12.2-1.5-2.3-7.6-1.5-9.9-4.5-5.3-2.2-10.6.1-15.9 2.4-1.5 3-3 5.3-6.8 3.1 2.2-9.9-9.9-18.9 1.4-24.2 9.1-3.1 18.2 6.7 25-3.2 5.3 0 9.8-.8 12.9 2.2-3.8-.7-9.1 2.3-9.1 6.9 2.3 7.6 15.2-1.5 16 6zm-19.2-44.6c6.8-1.6 4.6 6.8 7.6 6l-.8.8c-.7-4.5-9.8-.7-6.8-6.8zm-14.4-5.2c-3-.7-8.3 2.3-9.1-2.2 3 2.2 8.3-.8 9.1 2.2zm-11.3 12.2c4.5-3.1 11.4-1.6 15.9-.1-.7 3.8-4.5 5.3-3 9.9 7.6 3.7 12.9-3.9 18.9 1.4-2.3 2.3-6.8 6.1-12.1 6.1-6.8-3-12.1-.7-19-4.4-4.5 2.3-6.8 6.1-11.3 4.6-2.3-1.5 0-3 0-4.5 3.8-5.3 12.1 2.2 14.4-4.6-1.5-4.6-.8-8.4-3.8-8.4zm-15.3-13.6c-1.5 2.3-6 3.1-9.1 2.3 0-4.5 6.1-3 9.1-2.3zm-11.3 3.9c.8 2.3-2.3 2.3-3 2.3l-1.5-1.5c1.5-.1 2.2-.8 4.5-.8zm-9.1 4.6h1.5l-3 .8 1.5-.8zm4.6 9c8.3 0 11.3-6.9 19.7-6.2-.8-3 2.3-2.3 3.8-3.1 3 0 3.1 4.5 5.3 4.5-8.3 3.1-20.5-3.7-24.2 10.7-3.8.8-7.6 3.1-11.4.1-2.3-5.2 4.6-2.9 6.8-6zm-15 20.6c-.8-.8-2.3-3-.8-4.5 2.3-.8 5.3-2.3 6.8 0-.7 2.2-3.8 2.9-6 4.5zm-5.4-19.7c3-2.3 5.3-5.3 9.1-4.6-3.7 10.6-13.6 12.2-14.3 24.3l-1.5 1.5-1.5-1.5c-.9-8.3 6.7-12.1 8.2-19.7zm-26.4 19.8c4.6 3.8 8.4 6.8 13.7 9 1.6 9.1 6.1 8.3 10.7 15.9l5.4 18.9c-6.8-3-3.8-10.6-7.7-16.6l-6.9-12.8c-8.4-5.3-15.9-7.5-22.8-14.3 2.2-3.1 4.5-.8 7.6-.1zm-6.8 13.7c9.1-1.6 6.1 11.3 12.9 11.3 2.3.7.8 3 0 4.5-6 3.8-8.3-3-12.2-6 1.6-4.5-6.7-6.8-.7-9.8zm-84.7 33c-.8-3-1.5-5.3 2.2-6.1l3.8 5.3c-.7 3-4.4.8-6 .8zm18.3 23.4c-1.5-.8-4.5-.7-7.6-3-2.3 0-3 .8-3.8-.7l.7-4.6c5.3-2.3 6.1 3 10.6 3.7 2.4 0 .9 3.1.1 4.6zm39.4 3.6c-4.5.8-7.6-4.5-8.4-8.3-2.3-3.8-10.6-5.2-9.9-12.1h1.5c7.6 3 6.9 12.8 14.5 12 2.3 2.3 3.8 5.3 2.3 8.4zm6-16c-5.3-2.2-9.9-7.5-12.9-11.3l1.5-1.5c4.5 0 3.8 8.3 9.9 7.5 1.5 1.5 3.8 4.6 1.5 5.3zm2.7-64.4c3 1.5 7.6.7 11.4 2.2l1.5 1.5c-3.8 1.5-9.1-.7-15.2-.7-1.4-1.4 1.6-2.2 2.3-3zm-20.3 14.5c1.5 1.5 3 3.8 5.3 1.5-.8-2.3 1.5-3.8 3-4.6 5.3 0 9.9 9.8 14.4 2.2 1.5 0 3.8-1.5 3.8.7-5.3 3.8-3 9.9-1.4 15.2 2.3 1.5 2.3 3.8 1.5 6.1l-.8.8c-4.6-2.2-10.6-6.8-9.9-14.3-3-1.5-5.3-2.2-7.6.8l-6 10.6c-4.5 3.8-12.9 1.6-13.6 8.4-3 5.3-9.8.1-12.9 5.4-.7 5.3 6.9 9.8.8 14.4-5.3-5.3-7.7-15.1-15.2-19.6-1.5 0-.8-2.3-.8-3 5.3-2.3 7.6 7.5 11.4.7L107 709l.8.8c2.3-2.3 9.1 4.5 9.8-3.1 0-2.3-4.6-5.3-1.5-6.8 3 2.3 7.6 7.5 11.4 7.5 0-3.8 8.3-3.8 6.8-9.1 0-3-2.3-5.3-3.8-6.8l-4.5 4.6c-.8-1.5-2.3-2.3-1.5-4.5 2.1-3.2 7.4-6.2 12-4zm-7.7-7.5c-14.3 9.2-28.7 15.3-39.2 28.2-4.6-1.5-.8-5.3.7-7.6 4.5-3.8 11.3-7.6 15.8-13 6.8-3.7 16.7-12.1 22.7-7.6zm-83.5-32.2c-.8-1.5 0-1.5 1.5-1.5.8-.8.8.8 1.5.8 1.5-6.1 3.8 2.3 7.6 0 8.3-3.8 9-19 20.3-22.1 9.9 3 25.7-7.7 28.1 5.9-.7 11.4 6.2 21.2 7 32.5 4.5.7 6.1 5.3 3.8 8.3-6 7.6-16.6 7.7-21.1 16-5.3 3.1-6 8.4-12.1 9.2 0-6.1-6.1-11.3-3.1-17.4-.8-7.6-2.4-18.9-4.7-28.8-7.5-3-20.4-2.2-28.8-2.9z"/><g clip-path="url(#SVGID_2_)"><path class="st3" d="M416 71.8h-16.2l25.3 34.4V86.3c.1-13.7-6-14.5-9.1-14.5zm-79.7 14.5v19.9l25.2-34.3h-16.1c-3-.1-9.1.7-9.1 14.4z"/><path class="st3" d="M379.8 5.5c-59.3 0-107.4 48.1-107.4 107.4 0 59.3 48.1 107.4 107.4 107.4 59.3 0 107.4-48.1 107.4-107.4 0-59.3-48.1-107.4-107.4-107.4zm12.1 150l-11.1-14.9-11.1 14.9h-24.1l19.6-26.1v-12.7h31.4v12.7l19.5 26.1h-24.2zm33.3 24.9v-67.8h-26.7l-17.7-24.1-17.8 24.1h-26.6v67.8h-31.5V69.9c0-8.2 9.8-17.8 25-17.8H365v-19h31.4v19h35.1c15.3 0 25 9.6 25 17.8v110.5h-31.3z"/></g><path class="st0" d="M439.5 291.4c-7.9-8.5-14.7-10.9-33.7-7-2.8.6-6.7 1.2-11.2 1.8-.6-9.2-1.5-17.5-2.7-23.5 2.9-.9 5.2-1.7 6.5-2.2 7.2-3 11.4-2.4 16.1-2.1 4.7.3 5.7-5.5 6.3-8.7.6-3.2-7.8-5.5-12.1-9.4-4.3-3.9-7.5-3.6-7.5-3.6-2 0-12.9 9-25.8 16.8-15.1 9.2-31.6 18.5-31.6 18.5l.5 1.3c4 .6 16-1.9 27.8-4.9-.3 4.3-.8 11.9-1.6 20.9-22.1 2.5-45.6 4.1-50.7 4.6-.7.1-2.1.2-1.6 2.5.7 3.5 13.1 10.8 30.4 14 4.8.9 12 .9 19.9.3-1.5 13.3-3.4 26.2-5.7 33.7-.7 2.3 2.7 7.5 4.9 8.6 2.2 1.1 18.5 8.9 20.3 9.7 1.8.7 8.2-.1 8.3-2.8.1-2.7.4-25.9-.5-52.2 11.5-1.6 21.1-3.4 24.2-3.9 7.6-1.3 1.4 4.7 15 4.7 13.5 0 12.4-8.6 4.5-17.1M339.9 395s26 5.6 68-9.4c10.1-3.6 12.2-4.8 20.9-1 8.7 3.7 26.3 18 27.1 18.3s1 10.1-2.2 10.6c-3.3.6-15.4 4.6-32.8-7.1-2.9-1.9-10.8 5.1-44.3 5.1s-41.1-11.8-42.7-14.5c-1.5-2.7 4.7-2.4 6-2m-6.5 16.7c3-.7 19.9 1.8 20.8 39.6.9 37-.4 50.4-3.4 52.7-3 2.3-7.5 5.3-19.1-5.2-11.5-10.6-5.2-16.8-2.9-26.1 2.4-9.3 4.6-38.9 3.8-45.6-.8-6.9-.7-15 .8-15.4m120.7 84.9c-1.4-6-13.4-14.2-10.1-17 3.2-2.8 10.3-13.8 10.3-20.5 0-6.7-18.7-25.7-22.7-29.8-4-4.2-14.6.9-21.7 3.4-7.2 2.5-26.4 4.2-26.4 4.2-1.4-2.7-19-12.3-20.4-10.9-2.8 2.7 3.5 7.6 2.4 32.1-1.2 28.3-11.8 31.2-9 35.4 2.9 4.2 16.7 12.3 23.4 14.7 6.7 2.4 8.6-4.9 9.7-8.6 23 4.6 28.4-2.4 33.2-2.4 4.5 0 15.5 5.8 15.5 5.8 12.1 4.4 17.2-.4 15.8-6.4M398.9 478c-2.4.2-5.5.1-8.6-.3-.1-1.4-.1-2.9-.2-4.6-.2-5.1-.7-9.8-1.4-13.9 21.2 6.1 28.9-5.8 31.4-7.3 2.7-1.6 8.6-2.8 9.3 6.4.8 9.2-22.2 19-30.5 19.7m25.9 88.7c15.8 7.6 22.9 6.3 25.3 2.6 2.4-3.7-3.8-10.2-3.8-10.2 3-1.3 4.9-8.3 4.7-8.1-.1.2.5-6-1.7-6s-13.8-6.2-15.9-7c-2.1-.8-7.4-5.4-11.4-4.2-8.3 2.2-39.6 8.7-53.7 9.1-14.8.4-21.6-1.3-22.6 0-2.1 2.9 16.8 10.3 24.9 12.7 8.1 2.4 19.5.6 26-.7 6.5-1.3 18-5.2 21.1-6.3 3-1.1 9.4-.6 4.3 2.6-8.7 5.4-52.8 7.8-68.1 8.5-1.7-2.3-18.5-14.3-20.3-14.8-1.9-.5-4.8-.4-4.6 1.1 3.2 35.6-5.9 93.4-6 97.1-.1 3.7 10.7 9.3 17.3 13.2 6.6 3.9 5.8 2.3 10.4-1.5 2.8-2.3 3.7-37 3.8-63.8 2.8-.1 8.3-.4 14.5-.7-1.9 2-4.1 4.2-5.7 5.3-3.5 2.4-9 10.8 2.9 14.5 4.9 1.5 12.6 2.3 21.3 1.9l.3 5.2c-2.6.2-5.1.5-7.2.8-11.6 1.9-18.9.8-18.9.8-1.6 0-2.3-.5-1.8 2.2.5 2.6 12 11.3 14.2 12.1 1.3.5 6.5.1 14.6-.1l.6 11c-13.3 1-25.9 1.8-27.8 2-1.3.2-3.2 1.5.6 6.1 4.5 5.4 8.7 7.7 10.3 7.6 14.8-1.5 50.6-.6 64.9-1.2 14.3-.6 13.6-5.5 12.8-7.8-.8-2.4-6.9-6-10.8-9.2-3.9-3.2-7.5-2.4-18.8-.4-2.3.4-6 .8-10.4 1.2-.1-2.7-.4-5.9-.7-9.2h.4c19.4.8 30.9-2 33.1-5.4 2.2-3.4-6.1-8.2-9.2-10.3-4.3-2.9-9.9-5.9-13.4-4.1-2.7 1.4-7.5 2.1-13 2.7-.3-2.3-.6-4.4-.9-6.3 5.9-1.3 11.8-3.1 17.4-5.5 3.1 2.4 6.5 4.5 9.9 5.9 5.8 2.4 18.1 3.7 13.4-4.8-4.6-8.3-7.8-11.9-9.1-15.8 3.5-1.6 7.3-3.9 7.6-5.4.5-2.4-7.9-4.7-13.9-8.9-6.1-4.2-15.8-4.2-22-1.8-5.5 2.1-45.8 4-55.2 4.5v-5.6c6.8-1.6 67.6-6.9 70.3-5.6m-25.1 23c3.2.3 7.5.6 12.3.8.2.5.4 1 .7 1.5-15.4 8.8-28.6 6-32.5 4.8-2.4-.8-.6-4.3 1.3-7 7.7-.3 14.8-.4 18.2-.1"/></svg>