<svg xmlns="http://www.w3.org/2000/svg" viewBox="0 0 150 112.718"><path d="M148.683 73.287c.155-3.744-.176-7.568-.149-11.324.055-7.575.321-15.149.216-22.725-.1-7.163 1.356-15.003-3.799-20.788-.763-.857-1.724-1.664-2.774-2.074a12.165 12.165 0 00-7.561-3.173l-6.072-.325a12.163 12.163 0 00-3.173.247c-6.259 1.327-29.252 6.187-32.139 6.6-2.606.372-22.743-1.139-33.227-3.744-3.741-.93-7.605-1.179-11.447-.875-1.026.081-2.043-.006-2.898-.401l1.211-2.594a.55.55 0 00-.609-.771l-7.056 1.453-4.542-3.586a5.26 5.26 0 002.404-5.493L36.337 0s-.717 6.576-5.259 6.337l-6.455.478H14.582s-2.63-.239-3.586-5.498c-.569-3.13-.884-.079-1.046 2.904a5.26 5.26 0 003.588 5.275l1.283.428-1.912 3.586s-4.303 3.108-6.933 2.63C3.347 15.66 0 16.189 0 16.189s1.673 5.687 6.694 5.687 6.694-2.63 6.694-2.63l1.7 15.552.69 5.246c.289 2.196 3.09 4.303 5.305 4.303h3.54s15.3 33.468 18.408 33.468c3.108 0 3.108 1.673 3.108 1.673l5.225 15.431c.548 1.334.83 2.762.83 4.205v6.183l-2.152 7.411h6.137l1.513-5.498-.478 5.498h5.181l2.262-14.703a11.02 11.02 0 00.129-1.682V75.926a2.216 2.216 0 012.605-2.182c6.896 1.231 25.284 4.413 27.994 3.832 2.647-.567 12.919-5.919 17.1-8.133a2.217 2.217 0 012.894.749l10.198 15.648a15.78 15.78 0 012.559 8.615v4.801c0 1.945-.36 3.873-1.06 5.687l-3.004 7.774h5.976l5.737-21.515.264.581a15.776 15.776 0 011.09 9.712l-2.311 11.223h5.02l4.786-17.62a7.895 7.895 0 00.142-3.519l-3.015-16.153.956-20.32 3.796-9.868c.34-.883.573-1.799.699-2.731-.109 3.296-.314 6.595-.507 9.789-.324 5.369.14 10.763-.212 16.114-.266 4.046.85 8.192-.292 12.169-1.001 3.487-2.86 6.434-.12 9.774.23-.386.572-.463.751-1.11.24.627.47 1.257.703 1.887a9.705 9.705 0 01.686-4.429c.325 1.867.357 3.785.094 5.662 3.703-5.864.109-12.815.368-19.076z" fill="#fff"/></svg>