<svg xmlns="http://www.w3.org/2000/svg" viewBox="0 0 68.76 90"><path d="M64.967 68.65c-2.204-3.559-4.677-6.485-7.497-7.965s-5.957-1.533-9.432.619c-2.517 1.559-4.858 4.067-6.62 6.963-6.705-2.7-12.508-8.25-17.031-15.488-4.61-7.377-7.054-15.179-6.417-22.509 3.35-.296 6.607-1.269 9.104-2.816 3.474-2.152 4.825-4.984 4.756-8.168-.069-3.184-1.586-6.702-3.79-10.26-2.204-3.559-4.677-6.485-7.497-7.965s-5.957-1.533-9.432.619C7.638 3.831 4.484 7.78 2.75 12.081a20.113 20.113 0 00-1.078 3.584 27.662 27.662 0 00-1.259 5.412C-1.115 32.781 1.408 45.57 11.1 61.081c9.693 15.511 20.081 23.384 31.271 27.142a27.515 27.515 0 005.701 1.272c.939.21 1.907.357 2.892.434 4.623.364 9.563-.7 13.037-2.852s4.825-4.984 4.756-8.168c-.069-3.183-1.586-6.701-3.79-10.259z"/></svg>