<?xml version="1.0" encoding="utf-8"?>
<!-- Generator: Adobe Illustrator 24.1.3, SVG Export Plug-In . SVG Version: 6.00 Build 0)  -->
<svg version="1.1" id="レイヤー_1" xmlns="http://www.w3.org/2000/svg" xmlns:xlink="http://www.w3.org/1999/xlink" x="0px"
	 y="0px" viewBox="0 0 800 1032" style="enable-background:new 0 0 800 1032;" xml:space="preserve">
<style type="text/css">
	.st0{clip-path:url(#SVGID_2_);fill:#FFFFFF;}
	.st1{clip-path:url(#SVGID_2_);fill:#251814;}
	.st2{clip-path:url(#SVGID_2_);}
	.st3{fill:#FFFFFF;}
</style>
<g>
	<defs>
		<rect id="SVGID_1_" x="-87.6" y="-168" width="971.5" height="1374"/>
	</defs>
	<clipPath id="SVGID_2_">
		<use xlink:href="#SVGID_1_"  style="overflow:visible;"/>
	</clipPath>
	<path class="st0" d="M61.4,231.2c3.8,9.1-3.7,21.2,6.9,25c3.1,6,10.7,16.6,3.9,20.4c-4.5,8.4-0.7,13.6,2.4,20.4l0.8,0
		c0.8,17.4,3.2,36.3-1.3,52.3c-0.7,2.3,0,8.3-4.5,6.8c-7.6-3-15.9,3.1-23.5,0.1c-2.3,2.3-6.1-0.7-7.6-0.7
		c-0.1-12.1,0.7-18.9-0.9-29.5c2.3-3,0-5.3,0.7-9.1c6-9.9-0.1-21.2,5.2-29.6c-5.4-11.3-3.9-23.5,1.3-33.3c4.5-2.3,9.8-3.8,9.8-9.1
		C55.4,241.1,51.5,226.7,61.4,231.2"/>
	<path class="st0" d="M612.5,595.8c-0.7,3-2.2,4.6-4.5,6.1c-3.8,0-6.1-3.8-6.8-6c0.7-2.3,0.7-6.1,3-6.8
		C608.7,588.3,612.5,591.3,612.5,595.8"/>
	<path class="st1" d="M455.5,826.5l-0.2,0.4C455.7,826.9,455.7,826.7,455.5,826.5z"/>
	<path class="st0" d="M477.3,682.9l-2.3,3c0-2.3-3-2.3-2.3-4.5C474.3,680.6,477.3,680.6,477.3,682.9"/>
	<path class="st0" d="M787,650.2c-13.6,5.4-22.7,0.1-37.1,0.2c-7.6,0.8-17.4-4.5-22.7,3.9c-2.2,10.6,0.1,22-2.9,31.8l0.8,0.8
		c-2.9,22.7-9.6,45.5-16.3,67.5c-4.5,6.8-12.1,1.6-18.9,5.4c-4.5-0.7-9.9-3.7-14.4-2.2c-10.6-4.5-22.7,3.9-32.6-0.6
		c-12.1,4.6-23.5-1.4-34.1-1.3c-2.3-5.3,2.2-10.6,4.5-15.9c12.1-4.6,25-0.9,38.6-1.7c12.9-3.9,26.5,4.4,37.8-5.5
		c6-14.4,16.6-21.3,21-37.2c-1.5-6.1,4.5-12.1-2.4-15.9c-3.1-11.3,2.2-22-0.9-34.1c-2.3-6-9.1-9-14.4-7.5c-6,3.1-8.3,10.6-14.3,14.5
		c-3,5.3-5.2,12.9-4.4,19c7.6,3,15.2,9,24.3,9c5.3,7.5-3,14.4-5.2,22c-0.7,6.8-9,11.4-12,19c-6,7.6-8.4-3.7-15.2-1.4
		c-3.8,1.5-3,5.3-0.7,7.6l-1.5,0.8c-3.1-4.5-6.9-12.1-5.4-18.9c2.3,0,2.3,6,5.3,5.3c5.3-3.8,3.7-13.7,4.4-20.5l-6.1-4.5
		c0-4.5,0-9.8-0.1-13.6c-1.5-0.7-6.1-3.8-8.3-0.7c-6.1,0-12.1-1.5-13.7-5.2c3.7-8.4,15.1-0.8,22.7-1.6c5.3,0,3.8-6.1,5.3-9.1
		c11.3-8.4,14.3-27.3,30.2-27.4c6.8,2.2,10.6,8.3,12.2,14.3c2.3,6-0.7,14.4,2.4,18.9c12.1-3.1-0.1-18.9,6.7-26.5
		c12.9-0.1,19.6-10.7,26.4-19.8c3-3,9.1-4.6,12.1-2.3c6.8-0.8,9.9,6.8,16.7,5.2c4.5-2.3,10.6-5.4,10.5-11.4c-6.1-3-10.6-7.5-16-11.3
		c1.5-6.8,9-10.7,13.6-14.5c2.3-3.8-1.6-8.3-3.8-11.3c-6.1-3.8-10.6,1.6-16.7,0.1c-4.6-6-1.6-17.4-3.9-23.5
		c-3.8-6-12.1-5.2-17.5-5.2c-2.2,6.8-5.2,15.9-3.7,24.3c-3,9.1-10.6,0.8-15.9,1.6c-3,2.3-9.8,4.6-10.6,9.1
		c-1.5,3.8-2.2,9.9,1.6,12.9c4.6,1.5,5.3,5.3,10.6,6c9.1,6.8-4.5,13.7-6.7,19.7c-3.8,2.3-9.8,6.9-14.4,3.1c-1.5-2.3-3.1-6-0.8-8.3
		c-3.1-14.4,0.6-28-2.5-42.4c0-5.3,3.7-9.9,2.2-15.2c3.7-16.7,2.8-38.7,6.5-56.1c-1.5-4.5-0.8-15.9-0.9-20.5
		c4.4-25-1.8-49.2,1.1-76.5c-2.3-3.8-2.3-11.4-3.1-15.9c2.2-19-3.2-34.1-4.1-52.3c-7-29.5-6.8-60.8-17.6-86.5
		c-1.5-6.1-4.7-16.6-7.6-22.3h66.3c2.3,5.3-0.7,12.4,0.1,17.7c-2.3,3.8-3,7.6-0.7,11.4c-0.7,5.3-6.8,6.1-9.8,9.9
		c-4.5,9.1-0.7,15.9,0.1,24.2c-5.2,10.6,1.6,23.5-3.6,32.6c1.5,6.1,2.3,12.9,0.9,18.2c3.1,5.3-3,12.9,1.6,18.2
		c10.6-0.1,19.7,0.7,29.5,0.6c6.8-1.5,4.5-11.4,5.2-17.5c-3.9-14.4,2.1-26.5-1-40.9c-7.6-9.1-1.6-20.4-2.4-30.3
		c-0.1-10.6-17.5-9-13-20.4c3-7.6-0.8-17.6,5.2-23.7H790v-57.8H491.4c-1.5,6.8-27.2,48.3-70.2,57.8h182.2l3.5,13
		c6.9,10.6,6.2,25,11.6,37.1c4.6,17.4,4.7,40.1,10.9,57.5c0.8,11.4,0.9,22.7,2.4,34.8c0.8,1.5,0.8,5.3,0.8,5.3l0.8,0
		c-0.7,6.8-1.4,12.9,3.1,18.2c-5.2,24.3,6.3,44.7-1.9,66.7c2.3,7.6,4.6,17.4,0.1,25c0,6.8,0.8,14.4-0.6,22
		c-1.5,10.6,0.1,24.2-4.4,31.1l-3-1.5c-8.3,2.3-18.2,0.9-20.4,11.5c2.3,9.1,14.4,4.5,17.5,13.5c-1.5,1.5-3.8,1.5-6,2.3
		c1.6,8.3-6.8,6.1-10.6,10.7c-6,3.1-12.1,7.6-19.7,5.4c-7.6-3.7-19-6-25.8-2.9c-3,3-2.2,4.6-1.5,7.6c6.1-0.8,4.6,8.3,9.9,9.8
		c0.8,2.3,2.3,5.3,0,6.8l-0.8-0.8c-5.3,4.6-12.1,0.1-18.2,2.4c-6.1-1.5-12.9-2.2-18.2-1.4c-3.8,5.3-10.6,1.6-15.1,6.1
		c-3.8,6.1-7.6,1.6-10.6,8.4c-5.3-0.7-6,6.1-8.3,9.9c-6.8,0.8-3,13.7-9.8,15.2c-3,10.6-1.4,24.2-8.9,28.8c-4.5,0,0.7-6.8-4.6-6.8
		c-3.8,4.6-9.8,1.6-13.6,5.4c-6.1,1.5-9.8,6.9-16.6,6.9c-4.5,6.8-10.5,12.2-11.3,21.3c-9.8,5.4,0.1,22-12,24.3
		c-10.6-7.5-25.8-4.4-36.4-5.1c-9.8,0.8-18.9,5.4-27.2,10.7c1.5,1.5,1.5,6.1,3.8,5.3c6-3.1,12.8-9.2,21.2-7.7
		c9.1,2.2,14.4-6.9,24.2-1.6c3.8-0.8,9.9,4.5,15.2,2.2c3.8,5.3,10.6,6,14.5,12c6.8,3,10.7,9.8,14.5,15.8c9.1,2.2,3.1,14.4,12.2,17.4
		c0.8,7.6,1.6,14.4-1.4,20.5c0,1.5,1.5,1.5,0,2.3c3.8,4.5,0.8,10.6,2.3,15.1c-3,14.4,2.5,36.4,1,53.8c0,8.3-6,15.9-3.7,25.8l1.5-1.5
		c-0.8,1.5,0,3-0.7,3.8l1.5,0c0.8,6.8,0.1,13.6-2.2,16.7c0.8,5.3-3,14.4,1.6,17.4c-6,9.9-1.4,21.2-3.6,32.6c0,6.1,3.1,5.3,7.6,7.5
		c2.2-5.3,5.3,2.2,8.3-1.6c3.8,2.3,7.5-5.3,11.4-2.3c9.1-3.1,18.9-6.9,28.7-8.5c8.3-4.6,16.6-6.9,27.2-10
		c5.3-5.3,13.6-6.1,19.6-10.7c3,1.5,5.3-2.3,6.8-4.6c4.6,2.2,7.5-5.3,12.1-3.8c4.5-5.3,8.3-9.1,15.1-13c3-0.8,6-3.1,8.3-6.1
		c6.1,0,6-7.6,11.3-6.9c9.8-12.2,24.9-21.3,33.9-34.3c6.8-4.6,11.3-11.4,16.6-16.8c12-19,22.5-38,35.3-57.8c3-7.6,2.9-16.7,9-22
		c6.8-7.6,6-17.5,11.2-26.6c2.9-17.4,8.9-34.1,9.6-50.8c3-9.9-3.2-26.5,8.9-31.1c3.8-0.8,2.3,3.8,3.8,5.3c-4.5,6.8-2.2,13.6-5.2,22
		c2.3,12.9-1.4,25-5.1,37.1c-2.2,8.3-2.2,19.7-7.4,25l-4.4,19l-1.5,0c-4.5,6.8-1.4,15.9-7.5,21.2c-0.7,9.9-7.5,12.2-9,21.3
		c-7.6,3.1-6,13.7-12,16c-3.7,9.1-10.5,16.7-15.8,24.3c-3.8,4.6-6.8,12.2-12.8,14.5c-6,6.8-11.3,12.9-18.1,17.5
		c-6.8,0.8-4.5,8.4-10.6,9.1c-3,6.8-9.8,9.9-14.3,13.7c-3.7,7.6-9.1,4.6-14.3,9.9c-1.5,7.6-9.1,3.8-11.3,10.7
		c-4.6-1.5-6,3.8-9.1,3.1c-6.8,5.3-16.6,8.4-24.2,13c-6.1,0.8-7.6,4.6-12.9,4.6c-6,4.6-13.6,6.9-21.2,8.4c-2.3-0.7-4.5,5.3-6.8,2.3
		c-3,4.6-10.6-0.7-12.1,5.4c-6.8,2.3-14.4,1.6-20.4,5.4c-3.8-1.5-7.6,3.1-10.6,0.8c-3.8,4.6-9.1,0.8-12.9,4.6
		c-2.3-1.5-6.1,1.5-7.6-0.7c-2.3-0.7-4.5,0-6.1-2.2c-0.1-17.4-0.2-40.9,2.7-59.9l-1.5,0c-1.6-11.4,0.6-25,2.1-35.6
		c-2.3-3,3.8-6.8-0.1-9.8c3-3.8-2.3-2.3-2.3-6.8c0-1.5,0.7-4.6,2.3-3.8c0.7-1.5,3-6.1-0.8-6.8c0.7-4.5-3.9-13.6-0.1-17.4
		c0.4,0,0.8,0.2,0.9,0.4l1.3-2.7c-1.5-3.8,2.2-9.9-3.1-11.3c-2.3-3-1.6-8.3-0.8-11.4c9.1-3.1-0.1-15.2-0.1-20.5
		c6.8-4.6-2.3-7.6-0.8-13.6c0.7-10.6-9.1-10.6-13-18.1c-2.3-7.6-9.1-9-13.7-14.3c-5.3-3-9.1-4.5-14.4-7.5c-10.6,3.8-19-4.4-28,0.1
		c-14.4,6.9-24.9,15.3-36.2,25.9c-5.3,5.3-1.4,15.2-8.2,19.7l0-0.8c-3.7,12.9,1.7,26.5-2.8,39.4c0.9,32.6,0.3,60.6-0.3,92.4
		c-0.7,3.8,0.8,8.3-0.7,12.9c2.3,9.1,0.1,20.5,0.2,30.3c-4.5,3.1,2.3,9.8-2.2,12.1c4.5-0.8,1.5,5.3,2.3,7.6
		c-5.3,9.1-14.4-4.5-20.5-2.9c-6.1,1.5-6.8-4.5-11.4-1.5c-3.1-3.8-7.6-3-10.6-6c-3.8,3.1-7.6-2.2-10.6-1.5
		c-8.3-3-17.4-5.2-24.3-10.5c-3-2.3-7.6,0.8-8.4-3.7c-7.6-1.5-12.2-8.3-19-8.2c-6.1-1.5-9.9-9-16.7-11.3c-4.5,0.8-8.4-6-12.2-6
		c-2.3-5.3-8.3-1.5-9.9-7.5c-6.8,1.6-10.6-7.5-15.2-11.3c-6.8,2.3-6.1-6.8-10.7-9c-12.2-9.8-20.6-24.9-32.7-33.9
		c0.7-8.3-9.2-12.1-13.7-17.4c0-7.6-9.1-9.8-9.9-16.6c-8.3,0-3.8-12.1-10.7-14.3c-0.1-12.1-11.4-15.1-11.5-26.5
		c-2.3,0.8-3-3.8-4.6-5.3c-2.3-4.5,1.5-12.1-5.4-12.9c-6.9-16.6-10.8-34.8-12.4-53c-3.8-3.8-1.6-10.6-2.4-15.9
		c3-11.4-3.9-18.2-0.9-28.8c1.5-3,1.5-7.6,6-7.6c0.8,2.3,3,2.3,3.1,4.5c-0.7,6.8-3,12.9,0.1,19.7c0,4.5-0.7,6.8,0.1,10.6
		c6.1,11.3,3.2,24.2,6.2,36.3c7.6,6,3.9,18.9,10.7,25.7c0.8,12.9,10.7,17.4,10.8,30.2c4.6,2.3,6.1,9.1,8.4,13.6
		c5.3,0.7,3.8,7.6,6.1,12.1c5.3,1.5,5.3,8.3,8.4,12.1c6.1-0.8,2.3,12.1,10.7,12.8c2.3,6.8,8.4,5.3,8.4,12.8
		c7.6,3.7,13.7,14.3,20.5,18.1c2.3,5.3,8.4,3.7,8.4,10.6c1.5,3,4.6,3,6.8,3.8c3.8,5.3,8.4,10.6,14.5,13.6
		c3.1,8.3,14.4,7.5,17.5,17.3c12.2,6,23.6,15,35.7,20.3l3,0c6.1,6,12.9,9,20.5,9.7c7.6,6.8,18.2,7.5,26.6,12
		c3.8-1.5,6.8,4.5,10.6,1.5c2.3,4.5,7.6,0.7,10.6,4.5c2.3,0.7,8.4,3.7,10.6-0.8c-0.8-5.3,2.2-14.4,0.7-20.5l-1.5,0
		c-0.8-5.3,3-10.6,0.7-14.4c3-3.8,3-11.4,0.7-17.4c3.8-3.8-4.6-6-1.6-12.1c4.5-1.5,0.7-11.4,3-15.2c-1.5-3,0.7-6.8-0.8-9.1
		c4.5-10.6-4.7-22.7,0.6-33.3c3.7-25-5.6-57.5,8.7-78.8c1.5-4.6,6.8-5.3,4.5-10.6c-5.3-1.5-7.6-9.8-13.7-5.2
		c-5.3-8.3,10.6-9.1,2.2-15.9c-1.5-0.8-4.6-1.5-6.1,1.5c-3.8-3.8-3.1-9.8-4.6-15.1c-5.3-3-3.8-11.3-3.9-15.1
		c1.5,0.7,5.3,4.5,6.1,5.3c3-11.4-6.2-20.4-7.7-32.5c-3.1-5.3-9.2-12.1-13.7-17.4c-9.1-5.3-15.2-15.8-26.6-15.8
		c-8.4-3.7-22.7-2.9-31.8,0.2c-3-1.5-7.6,2.3-11.4,1.6c-7.5,5.3-18.1,16.8-27.2,10.7l-7-28.8c-1.5-2.3-3.1-6-2.3-9.8
		c6.8-6.9,0.7-16.7,9.7-23.5c6.8-3.1,16.6-4.6,23.4-6.9l3-9.9c-0.8-9.1-11.4-3-16.7-6.7c-0.8-4.5-0.1-9.8,3.7-13.7
		c0-3.8-4.6-4.5-6.1-6.8c-12.9-5.2-18.9,12.2-26.4,19.1c-7.6-5.3-0.8-17.4-9.2-22.7c-6,6.1-15.9,6.1-23.4,10
		c-7.6,2.3-4.5,13.7-9,17.5c-1.5,3-2.2,7.6,0.8,10.6c14.4-0.8,24.2-0.9,38.6-4.7c3-2.3,8.3-3.8,9-8.4c5.3-3.8,6-12.9,14.3-14.5
		c5.3,8.3-8.3,15.2-1.4,22.7c4.6,1.5,10.6-1.6,15.9-2.4c2.3,0.7,1.5,3,2.3,5.3c-5.3,1.5-13.6,2.3-19.7,2.4c-8.3,2.3-6.8,12.9-6.7,19
		c-5.3-1.5-3,6.8-9.1,5.4c-6.1-3-1.6-10.6-4.6-15.1c-7.6-4.5-18.9-1.4-25.7,2.4c-3.8,6.8,4.6,7.6,4.6,14.4c3.1,6-5.3,6.1-8.3,6.1
		c-9.9-0.7-5.4-12.9-9.2-18.9c-11.4-3.7-9,9.1-15.1,15.2c-7.5,15.2-1.3,32.6,1,48.5c4.5,0,2.3,6.8,5.4,9.8l4.5-2.3
		c8.3-3.1,12.8-7.6,15.8-16c4.5-5.3-4.6-9.8-2.4-16.7c0.7-3,3.8-2.3,6-3.8c5.3,1.5,8.3,2.2,9.9,8.3c7.6,2.2,9.9,0.7,16.7-1.6
		c4.5-3.1,7.6,1.5,9.9,4.5c-3.8,6.8-15.1,3.9-18.9,11.5c-9.8,0.8-3.7,15.2-12.8,17.5c-12.1,3.1-26.5,0.1-37.9,5.5
		c-12.9-4.5-5.4-20.4-12.3-29.5c-2.3-8.3-0.8-15.1-4.7-22.7c-12.1-3-24.2,1.6-36.4-0.6c-6.8,1.6-4.5,10.6-9.8,10.7
		c-1.5,4.6-4.5,8.4-8.3,10.6c-9.1-4.5,3.7-14.4-4.6-18.9c-2.3-0.7-5.3-3-8.3-1.5c-5.3-1.5-18.2,4.6-16.7-6.7
		c4.5-3.1,11.3-3.1,16.7-2.4c4.5,0,9.8-1.6,11.3-5.4c-1.5-4.5-0.8-12.1-5.4-15.1c-2.4-17.4-11.6-37.8,5.8-50.8
		c2.3-2.3,4.5-6.8,8.3-5.3c2.3,1.5-0.7,5.3-0.7,6.8c-8.3,4.6-6,12.2-7.5,19c0.8,5.3,1.6,8.3,7.6,12.1c8.3-6.1,15.1-15.2,25.6-21.3
		c3,2.3,4.6,6.8,3.1,9.1c-6.8,7.6-17.4,14.5-21.1,23.6c0.8,10.6-5.2,22.8,6.2,27.2c12.1-3.9,21.2-0.1,34.8-4.7
		c9-9.1,9-21.3,14.2-32.6c-1.6-10.6,6.7-23.5-1.7-31.1c-6.1,0.8-4.6-6.8-9.9-7.5c-1.5-6.1-7.6-6-8.4-12.1c-0.8-3,1.5-5.3,3.8-5.3
		c2.3,5.3,9.9,0.7,10.6,7.5c6.1,1.5,6.1,9.8,12.9,11.3c6-4.6,7.5-12.2,9-19.7c0-3.8,6-5.3,2.2-9.9c0.7-3.8,3.8-6.8,7.5-6.9
		c3,0,3,3,3.8,4.5c-0.7,3.8,0,8.3-3.7,10.6c-1.5,5.3,0.8,13.6-2.9,19c-0.7,2.3,0,6.8,3.1,6c6.1,3.8,7.6-3.8,14.4-2.3
		c3.8-1.5,9.9,1.5,12.1-2.3l-4-47.7c-2.3-9.8-4.7-21.2-0.2-30.3c-4.6-3.8,2.2-9.1-2.3-11.4c2.2-6.1-2.3-13.6-0.1-20.5
		c-1.6-7.6,1.4-16.7,2.1-25c1.4-14.4-1.7-32.6,2.8-49.3l1.5-3c1.4-19.7,5.9-38.7,8.8-57.6c1.4-20.5,8.5-43,16.6-62.9
		c0,0,114.9,1.6,123.3,0c-29.5-9.2-60.8-42.7-60.9-57.8H14.9l-1.2,57.8h110.6c-2.2,11.4-0.6,30.6-8.2,38.3c0.1,26.5-9.6,45.5-8.7,69
		c-0.7,5.3-6.8,10.6-3.7,14.4c1.5,1.5-1.5,6.1,0.8,7.6c-7.5,20.5-2,44.7-4.2,65.9c0.8,6.8-3,15.2,0.1,22c-5.3,7.6,2.4,15.1-2.9,22.7
		c1.6,11.4,5.4,25.7,2.5,39.4c0,2.3-0.7,6.1-3.7,7.6c-3,4.6-3,9.9,0.1,15.2c6.8,0,4.6,14.4,11.4,12.8c-3,3,1.5,6.1-1.5,7.6l1.5,0.8
		c0.8,16.7,7.7,30.3,1,46.2c-6,11.4-17.4,2.4-27.2,6.2c-4.6-0.7-6.8-4.5-6.9-8.3c-2.3-10.6,6-17.5,12-22.8
		c1.5-5.3,9.8-6.1,10.5-12.2c-2.3-6.8-3.9-14.4-11.5-17.4c-3,0.8-6,2.3-7.6,4.6c-7.6,1.6-9.8,15.2-18.1,9.9
		c0.7-10.6,10.5-16,10.5-25.8c-3.8-2.3-6.8-6-12.2-6.8c-9.8,0.1-12.8,12.2-18.8,18.3c1.6,9.1-13.6,13.7-4.4,21.2
		c3.1,12.9,1.6,25,8.5,35.6c-0.7,6.1-9.8,2.3-12.9,4.6c-5.3,3.1-9.1-5.3-12.9,0.1c-3,6.1-3.7,15.9,0.1,22.7c7.6,2.2,16.7-1.6,25,2.9
		c0.8,6.1-6,6.8-4.5,12.9c1.5,3.8,2.3,5.3,6.1,6.8c-11.3,3.1-22,2.4-35.6,3.2c-1.5,2.3,0,4.5-3,5.3c1.5,1.5-2.2,6.1,1.5,6.8
		c1.5,5.3,3.1,10.6-0.7,15.2c-2.3,2.3,0,4.5,1.5,6.1c0.1,15.9,3.2,30.3,4.8,46.2c6.1,6.8,2.4,18.2,8.5,25.7
		c-0.7,15.2,12.2,23.4,13.1,37.8c5.3,1.5,3.9,13.6,6.9,17.4c5.3,2.2,3.8,9.1,6.9,13.6c6.1,2.2,5.4,12.1,10.7,15.9
		c1.6,11.4,9.1,6.8,9.9,17.4c6.8,1.5,5.3,8.3,8.4,12.8c6.8-0.8,4.6,9.1,9.9,9.8c0.8,8.3,10.6,7.5,10.7,15.1c6.8,0,6.1,9.8,12.2,8.3
		c1.6,7.6,7.6,6.8,10.7,14.3c6.1,0,5.3,7.5,11.4,8.3c3.8,7.6,15.2,10.5,19,18.1c6.1-0.8,4.6,6,9.1,4.5c2.3,6.8,9.9,6,12.9,11.3
		l0.8-0.8c3.8,4.5,4.6,4.5,9.1,6c0.8,6.8,10.6,3.7,12.9,8.3c3.8,5.3,9.1,6.8,16,8.3c1.5,4.5,6.8,2.2,9.1,6.8
		c6.8-0.8,12.2,7.5,19,6.7c4.6,7.6,15.9,3,22.8,9c6.1-0.8,9.1,6.8,14.4,3c3.1,4.5,8.3,1.5,9.9,6l2.3-1.5c9.1,2.2,19,2.9,27.3,7.4
		c7.6-2.3,15.2,3.7,22.7,2.9c6.8,3,14.4,0.7,21.2,2.2c3-0.8,5.3,2.2,7.6,0.7c10.6,3.7,28-0.9,40.2,2.1l4.5-1.5
		c10.6,3.7,21.2-3.9,31.8-0.9c5.3,0.7,9.8-1.6,15.1-1.6c3.8-0.8,9.8-3.8,13.6-1.6c3-1.5,8.3-0.8,11.3-3.8
		c11.4,2.2,19.7-6.2,30.3-5.5c3.8-3.8,9.1-1.6,12.9-4.6c4.5,0,9.1-2.3,13.6-6.1c6.1-0.8,12.9-5.4,18.9-4.6
		c4.5-5.3,12.9-5.4,17.4-9.9c4.5-1.5,10.6-3.1,13.6-6.1c5.3,0.7,6-6.9,11.3-6.1c1.5-5.3,9.1-2.3,11.3-7.6c5.3,3,5.3-6.1,10.6-5.4
		c1.5-6.1,9.1-3.8,12.1-8.4c4.5-3.8,9.1-6.1,12.1-9.9c5.3-3.8,12.8-9.2,18.9-13.7c9.8-12.9,23.4-21.3,35.4-32.8
		c10.5-17.5,25.6-30.4,36.1-48.7c0.7-7.6,9.8-8.4,9-16.7c6-6.1,5.2-15.2,11.3-20.5c18.8-37.2,30.7-79.7,32.7-124.4
		C790.2,674.5,804.5,653.9,787,650.2z M686.4,669.7l-0.8-5.3c2.3,4.5,8.3,2.2,12.1,4.5C695.5,671.1,690.2,671.2,686.4,669.7z
		 M719.5,626.3c6-6.8,12-16,17.3-23.6l-0.8-4.5c-5.3-6.8-21.3-7.5-16.8-18.1c8.3-6.9,18.2,12,23.5-0.1l3.7-25.8
		c1.5-2.3,3.8-2.3,5.3-1.5c3.1,6.8-3,13.7,3.1,18.9c-2.2,6.1,3.1,9.8,6.1,12.8c4.5-0.8,9.8-9.1,14.4-3.1
		c-3.7,7.6-20.4,10.7-12.8,22.8c4.6,2.2,5.3,6,10.6,6.8l-0.7,1.5l-21.2-6c-11.3,6.9-21.1,27.4-38.5,23.7
		C711.1,626.4,717.2,627.9,719.5,626.3z M616.9,718.5c-4.6-1.5-6.8-4.5-10.6-6.8c-5.3,3.1-7.6-4.5-11.4,0.1c-0.8-3-4.6-2.2-6.8-3.7
		c-3.1-3.8-7.6-8.3-5.4-14.4c5.3,1.5,9.8-2.3,15.2-0.1c-3,1.5-6,7.6-3,11.4c6.8,3,12.9,6,20.5,4.4c8.4,6,12.9,7.5,21.3,11.3
		c4.6,3,15.1-2.4,15.2,5.2C637.4,726,630.5,716.9,616.9,718.5z M602.4,694.3c2.3-2.3,5.3-1.5,8.3,0
		C608.5,698.1,606.2,692.8,602.4,694.3z M635.7,696.4c-4.5-0.7-9.8,0-13.6-2.2c5.3-2.3,13.6-1.6,19.7-0.1
		C641.8,696.4,638,696.4,635.7,696.4z M650.2,709.3c-3.8,6.8-11.4,1.6-16.7,0.8c-2.3-1.5-4.6-1.5-6.1-3
		C635,704.8,646.4,701.7,650.2,709.3z M643.3,684.3l0-0.8c3-1.5,6.8,0,10.6,1.5l0,1.5c-6.8,3.8-9.1-4.5-15.1,0.8
		c-1.5,0-1.5-3-3.8-2.3c-1.5,0,1.5-3,4.5-3.8L643.3,684.3z M659,658.5c-3.8-2.3-13.6,3.9-12.1-3.7c3-4.6,6.8,0.7,11.4-0.1
		C659.8,655.4,659.8,657.7,659,658.5z M670.3,644c-3.8,5.3-10.6,0.8-16.7,1.6c-4.6-3-1.6-7.6,0.7-10.6c5.3,0,14.4,0.7,17.5,6
		l-2.3,2.3L670.3,644z M683.1,630.3c-8.3,3.1-13.7-3-22-3.7c-3.8-2.3-0.8-4.5,0.7-6.1c6.8,1.5,14.4,4.5,22,6.7
		C684.6,628,684.6,630.3,683.1,630.3z M619.8,543.5c3-2.3,7.6-3.1,11.4-1.6c7.6,5.3,21.3,9,29.6,5.9c3.8-1.5,9.1-5.4,6-11.4
		c-8.4-7.5-18.3-15.8-19.8-26.4c0.7-3.8,5.3-3.8,8.3-5.3c14.4,3,7.7,26.5,24.4,22.6c2.3-3,6-7.6,9.8-2.3c5.3,3.8,0.8,11.4-3,14.4
		c-4.5,1.5-6,6.8-3.7,10.6l4.6,4.5l5.5,29.5l-1.5,0.8c-1.5,12.1,6.2,24.2-2.9,35.6c-3.8-0.7-6.1-3.8-6.1-6.8
		c-4.6-15.9,0.5-40.9-14.6-49.2c-5.3-0.7-11.4-1.5-16.7,0.1c-6.8-0.7-10.6,9.9-18.1,9.2c-1.5,1.5-3.8-0.7-6.1-0.7
		c-6.1-10.6,15.1-8.4,9.8-18.2C631.2,550.3,619.1,551.1,619.8,543.5z M585.9,584.6c3.8,3,10.6,2.2,15.1-0.8
		c1.5-7.6,12.8-7.6,14.4,0.7c1.6,9.8,14.4,3,19.7,4.4l4.6,1.5c2.3,8.3-9.8,4.6-9,12.2c-3.8,0.8-6.8,7.6-10.6,3.1
		c-6,4.6-12.1-1.5-18.9-0.7c-6.1,0.8-7.6-2.2-15.2-2.2c-10.6-0.7-4.6-14.4-13-18.1C575.3,579.3,582.1,583.8,585.9,584.6z
		 M576.2,608.1c2.3,3,8.3,0.7,9.9,4.5c-4.5,5.3-6,16.7-9,25.8c1.5,1.5,0.8,5.3,3.8,5.3c8.4,3.7,15.9-1.6,22,4.4
		c3.8,0.7,9.1-1.6,8.3-6.1c0-9.1,6.7-14.4,7.5-23.5c3.8-3.8,9.1-4.6,14.4-3.1c1.6,7.6-3,15.9-6.7,22c-3,9.1-2.2,18.2-9.7,25.1
		c-19-6.7-37.9-6.6-56.1-11.1C560.4,636.2,568.7,620.3,576.2,608.1z M561,608.2c5.3-3.1,3.8,5.3,3.1,8.3c-6.8,6.9-6,16.7-12,23.5
		c0,6.1-3,12.9,0.9,18.2c6.9,6.8,16.7-0.1,22.8,5.2c6.1,0,13.6,1.4,18.2,3.7c12.1-2.3,29.6,8.9,35.6-7c1.4-13.6,8.9-28.1,15.7-41
		c3,0,6.8,0.7,5.3,4.5c-11.3,10.7-8.9,28.8-18,41c0,6.1-2.2,12.9-9,13.7c-12.1,0.8-22-7.5-35.6-2.8c-8.4-6-22-1.4-31.9-7.4
		c-6.1-1.5-12.9,1.6-15.9-4.5c-1.5-3.8,1.5-6.8,3-9.9C543.8,637.1,555.1,623.4,561,608.2z M542.5,682.5c-5.3-1.5-11.3,3.8-15.9-3.7
		c4.5-3.8,11.4-0.8,16.7-1.6c9.1-1.6,15.9,0.7,22.7,1.4c0,3-4.5,3.1-4.5,3.8C556.9,677.2,548.6,686.3,542.5,682.5z M549.4,694.6
		c-5.3,6.1-12.9-1.4-18.2,4.6c-3,2.3-1.5-3-2.3-4.5C533.4,687.1,541.8,693.1,549.4,694.6z M535.5,648.5c1.6,6.8-5.3,3.8-6,9.1
		l-5.3,0l-1.6-12.9C527.1,643.2,534,643.2,535.5,648.5z M531.6,634.9c2.3,3,7.6-3.1,6.8,3c-2.3,1.5-5.3-0.7-6.8-0.7L531.6,634.9z
		 M530.3,669c-3.8,1.5-8.3,0.8-12.1,2.3c-1.5,0-3.8-1.5-3-3.8l0-0.8C519.7,669.8,529.5,658.4,530.3,669z M551.2,607.5
		c0.8,5.3-4.5,3.8-6.8,4.6c-4.6-3-10.6,0.1-15.2,0.1C530,602.3,543.6,608.3,551.2,607.5z M521,619c6.8,0.7,15.9-0.1,22.7,2.2
		c0,1.5,1.5,3.8-0.7,5.3c-12.9-1.5-20.4,0.9-31.1-2.9l-1.5,1.5C506.5,616,517.2,622.8,521,619z M521.8,632.6l1.5,0.7
		c-2.3,0.8-4.5,1.5-6.8,1.6c-1.5,3-4.6-1.5-6.8,0.8c-2.3-0.7-6.1,0.8-8.3-2.2C506.6,628.9,515,632.7,521.8,632.6z M504.5,655.4
		c1.5,0.7,6.8-0.8,6.8,3c-6.1,0-10.6,7.6-16.6,3.9C492.3,654.8,501.5,657.7,504.5,655.4z M444.8,695.9c3-1.5,6.1-2.3,9.8-3.1
		c1.5-0.8,3-2.3,3.8-5.3c-2.3-3.8,0-6.8,3-9.1c7.6,0,16.6-6.9,21.2,1.4c1.5,0,3,2.3,6.1,1.5c0.7-3.8,4.5-4.6,8.3-3.1l0.8,0
		c-2.2,11.4-15.9,0.8-20.4,10c-6.8,0-0.7,17.4-12.1,11.4c-2.3-3.8-6.8-2.2-10.6-4.5c-5.3-0.7-3.8,6.8-9.1,4.6
		C443.3,699.7,445.6,697.4,444.8,695.9z M450.3,731.5c-6,3.1-7.6-11.3-12.2-9c-0.8-7.6,14.4-0.8,11.3-9.2c-2.3-0.7-4.6-2.2-4.6-4.5
		c-0.8-1.5,1.5-2.3,3-2.3c2.3,1.5,6.8,0.7,6.8,4.5C448.7,716.3,456.3,724.6,450.3,731.5z M459.5,751.9c-1.5-5.3-1.6-8.3,1.5-12.9
		c6.8,1.5,2.3,12.9,9.9,15.9l0,1.5C467.1,757.2,464.1,751.9,459.5,751.9z M473.1,734.4c-0.8-3.8-1.5-6.1-6.1-6
		c-0.8-6.1-5.4-13.6,0.7-18.2c3.8,3,12.9-3.9,12.1,3.7c-0.7,6.8-7.6,1.6-9,9.1c1.5,3,0.8,6.8,4.6,7.6c3.8,0.7,11.4-2.3,11.4,4.5
		c-1.5,3.8-5.3,2.3-8.3,4.6C474.6,740.5,473.8,736.7,473.1,734.4z M480,756.3c-0.8,0-2.3-0.7-3-3c3-0.8,6-4.6,9.1-1.6
		c6-2.3,9.1-6.9,14.3-9.9l3-3.8C501.2,749.4,489.8,754.8,480,756.3z M501,715.3l-0.7,2.3l-4.5-0.7C493.4,713.8,501,711.5,501,715.3z
		 M503.2,696.4c-1.5,1.5-1.5,3.8-3,5.3c-3.8,0.8-6.8-2.2-10.6-3c0-0.8-0.8-1.5-1.5-2.3c2.3-3,6.8,0,9.1-1.6c1.5,1.5,4.6,1.5,5.3-0.8
		c0.7-3.8-0.8-10.6,5.3-9.1c1.5,3,8.3,0,6.1,5.3C509.2,691,507.7,697.9,503.2,696.4z M529.8,719.7c-2.3-3.8-6.9-6.8-11.4-7.5
		c-0.8,0.8-3,0.8-3-1.5c6-3.8,17.4-2.4,15.9,7.5c1.5,6.1-3,8.3-3.7,13.7c-4.5,3.8-12.9-1.4-18.9,3.1
		C510.1,725.1,524.5,728.1,529.8,719.7z M544.4,755.2c-4.6-1.5-8.4-7.5-13.7-6.7c-6.1-3-9.8,0-15.1,3.1c-0.8-0.8-3-3-3.8-0.7l0-3
		c6.1-0.8,12.9-5.4,18.9-3.9c3-2.3,6.1,0.7,7.6,3c2.3,0.7,6.8,0.7,7.6,4.5L544.4,755.2z M544.9,712.8l0-6.1
		c6.1-0.8,13.6-1.6,16.7,4.5c2.3,0,3.8,1.5,3.8,3c1.5-1.5,3.8,0.7,5.3-1.5c0-2.3-2.3-6.8-5.4-9.8c-5.3-1.5-8.4-6-12.9-9
		c4.5-1.5,9.8-6.9,14.4-5.4c6-3.8,12.9-3.1,18.2-6.2c1.5,0,2.3,0,3.8,0c-2.3,3.8-8.3-1.5-7.6,4.6c-5.3-2.2-7.6,3.8-8.3,6.9
		c-3,10.6,8.4,12.8,9.2,21.2l6.1,0l0,2.3c-9.1-1.5-16.7-2.2-25.8-2.1c-4.5,2.3-8.3-0.7-12.9-0.7
		C546.4,715.1,546.4,714.3,544.9,712.8z M577.6,735.4l-3,3c0-1.5-2.3-3,0-3.8L577.6,735.4z M579,746.9c-3.8,3.7-9.7,5.2-14.1,6.8
		c-7.6-0.7-3.1-11.3-10.7-15.9c0-4.5-3.8-9.1-0.1-11.4c3.8-1.5,5.3,3,6.8,5.3c3.1,5.3-3.7,12.9,3.1,16.7
		C568.9,747.6,575.5,744,579,746.9c0.1-0.1,0.2-0.1,0.2-0.1l0.8,0.8C579.7,747.1,579.3,747.1,579,746.9z M580.7,757.3
		c-1.5-3,2.3-2.3,3.8-3.8c1.5,0,3,0,3.8,2.3C586.8,757.3,583,758.1,580.7,757.3z M590.5,742.9c-0.8-3-4.6-5.3-2.3-8.3
		c4.5-1.5,12.1-0.8,13.7,4.5l0,5.3C598.1,744.4,593.6,745.9,590.5,742.9z M588.9,717.9c3.8,2.3,11.4-0.8,15.2,3.7
		c3.8,0.7,6.1,3.8,9.9,6c-2.3,0.8-4.6-0.7-6.8-2.2C599.5,724.7,594.2,722.4,588.9,717.9z M198.1,749.4l-5.3-3.8
		c-7.6,2.3,0,6.8-1.5,11.4c-5.3-1.5-9.1-2.2-14.4-0.7c-0.8-0.8-2.3-2.3-1.5-3.8c8.3,0.7,7.5-17.5,16.6-6.9c6-2.3,3-13.7,10.5-13.7
		l1.5,3C202.6,739.6,199.6,744.9,198.1,749.4z M184.4,734.3c-3-2.3-5.3-5.3-5.4-10.6l1.5-1.5c2.3,0.7,4.6,3.8,5.3,6.8
		C185.2,730.6,186.7,733.6,184.4,734.3z M191.1,705.5l1.5-2.3c0.8,0.8,0.8,1.5,0.8,2.3C192.6,705.5,191.8,705.5,191.1,705.5z
		 M211.7,744.1c1.5,1.5,0.7,2,0,2.8c-0.1,0.8-0.7,1.7-0.7,1.7c0-0.8,0.4-1.3,0.7-1.7c0.1-0.7-0.1-1.3-1.5-1.3
		c0.8-0.8-0.8-17.4,7.5-8.4C214.7,738.7,211.7,740.3,211.7,744.1z M209.2,693.3c-2.3-4.5,2.2-4.6,3.8-6.1c3-0.8,6.1-0.8,9.1,0.7
		C219,691,213.8,697.1,209.2,693.3z M215.3,709.2c-0.8-6.1,5.3-7.6,9.8-9.9c5.3-0.8,10.6-3.8,15.9-3.9c3.8,4.5,5.4,12.1,11.4,13.6
		c-3.7,12.9-18.9,9.2-27.9,16.1l-2.3,0c-0.8-4.5,5.3-4.6,4.5-9.1C222.2,713.7,218.4,713.7,215.3,709.2z M227.3,682.6
		c2.3-0.8,4.5-1.5,5.3,1.5c-0.7,1.5-3,1.5-5.3,1.5C226.6,685.6,226.6,683.4,227.3,682.6z M228.5,753.1c-0.8-3-3.8-2.3-6.1-3.8
		c1.5-2.3,4.5-0.8,6-3.1c4.5-0.8,6.8,3.8,8.4,6.8C235.3,758.3,231.5,753,228.5,753.1z M253.4,734.8c-9.8,6.1-19.7,1.6-29.5,3.9
		l-3-1.5c1.5-2.3,3.8-6.1,8.3-5.3c9.1,0,16.7,2.9,24.2-2.4c0,1.5,2.3,1.5,2.3,3L253.4,734.8z M265.4,721.1
		c-1.6-8.3,9.8-6.1,15.1-6.9l1.5,1.5C275.2,714.9,273,727.1,265.4,721.1z M270.8,737.7c0-7.6,8.3-6.1,12.8-7.6
		c0.8,1.5,2.3,1.5,1.5,3.8C278.3,732.4,276.9,741.5,270.8,737.7z M314,732.2c-2.3,3-6,5.3-7.5,8.4c2.3,8.3,18.2-2.4,14.5,11.3
		l-13.6,2.3c-3.1-6.8,2.2-14.4-5.4-18.2c-1.5-3,1.5-5.3,3.8-4.6C309.4,731.4,311.7,729.9,314,732.2z M307.6,673.1
		c3,1.5,2.3,6,2.3,6.8C308.4,679.9,305.3,676.2,307.6,673.1z M302.2,663.3l-2.3,0.8l0-2.3C301.5,661.8,301.5,662.5,302.2,663.3z
		 M304.7,692.8c-3.8,3-12.9,3.1-10.6,9.1c4.6,9.1,12.1-5.4,12.9,5.2c-0.7,5.3-9.1,0-7.5,6.9c0,9.1,10.6-0.8,12.2,6
		c-3,3.8-7.6,0.8-12.1,2.3c-1.5-0.8-3-3-4.6-1.5l-11.4-4.5c0.7-5.3,12.1-4.6,7.5-12.2c-1.5-2.3-7.6-1.5-9.9-4.5
		c-5.3-2.2-10.6,0.1-15.9,2.4c-1.5,3-3,5.3-6.8,3.1c2.2-9.9-9.9-18.9,1.4-24.2c9.1-3.1,18.2,6.7,25-3.2c5.3,0,9.8-0.8,12.9,2.2
		c-3.8-0.7-9.1,2.3-9.1,6.9C291,694.4,303.9,685.3,304.7,692.8z M285.5,648.2c6.8-1.6,4.6,6.8,7.6,6l-0.8,0.8
		C291.6,650.5,282.5,654.3,285.5,648.2z M271.1,643c-3-0.7-8.3,2.3-9.1-2.2C265,643,270.3,640,271.1,643z M259.8,655.2
		c4.5-3.1,11.4-1.6,15.9-0.1c-0.7,3.8-4.5,5.3-3,9.9c7.6,3.7,12.9-3.9,18.9,1.4c-2.3,2.3-6.8,6.1-12.1,6.1c-6.8-3-12.1-0.7-19-4.4
		c-4.5,2.3-6.8,6.1-11.3,4.6c-2.3-1.5,0-3,0-4.5c3.8-5.3,12.1,2.2,14.4-4.6C262.1,659,262.8,655.2,259.8,655.2z M244.5,641.6
		c-1.5,2.3-6,3.1-9.1,2.3C235.4,639.4,241.5,640.9,244.5,641.6z M233.2,645.5c0.8,2.3-2.3,2.3-3,2.3l-1.5-1.5
		C230.2,646.2,230.9,645.5,233.2,645.5z M224.1,650.1l1.5,0l-3,0.8L224.1,650.1z M228.7,659.1c8.3,0,11.3-6.9,19.7-6.2
		c-0.8-3,2.3-2.3,3.8-3.1c3,0,3.1,4.5,5.3,4.5c-8.3,3.1-20.5-3.7-24.2,10.7c-3.8,0.8-7.6,3.1-11.4,0.1
		C219.6,659.9,226.5,662.2,228.7,659.1z M213.7,679.7c-0.8-0.8-2.3-3-0.8-4.5c2.3-0.8,5.3-2.3,6.8,0
		C219,677.4,215.9,678.1,213.7,679.7z M208.3,660c3-2.3,5.3-5.3,9.1-4.6c-3.7,10.6-13.6,12.2-14.3,24.3l-1.5,1.5l-1.5-1.5
		C199.2,671.4,206.8,667.6,208.3,660z M181.9,679.8c4.6,3.8,8.4,6.8,13.7,9c1.6,9.1,6.1,8.3,10.7,15.9l5.4,18.9
		c-6.8-3-3.8-10.6-7.7-16.6l-6.9-12.8c-8.4-5.3-15.9-7.5-22.8-14.3C176.5,676.8,178.8,679.1,181.9,679.8z M175.1,693.5
		c9.1-1.6,6.1,11.3,12.9,11.3c2.3,0.7,0.8,3,0,4.5c-6,3.8-8.3-3-12.2-6C177.4,698.8,169.1,696.5,175.1,693.5z M90.4,726.5
		c-0.8-3-1.5-5.3,2.2-6.1l3.8,5.3C95.7,728.7,92,726.5,90.4,726.5z M108.7,749.9c-1.5-0.8-4.5-0.7-7.6-3c-2.3,0-3,0.8-3.8-0.7
		l0.7-4.6c5.3-2.3,6.1,3,10.6,3.7C111,745.3,109.5,748.4,108.7,749.9z M148.1,753.5c-4.5,0.8-7.6-4.5-8.4-8.3
		c-2.3-3.8-10.6-5.2-9.9-12.1l1.5,0c7.6,3,6.9,12.8,14.5,12C148.1,747.4,149.6,750.4,148.1,753.5z M154.1,737.5
		c-5.3-2.2-9.9-7.5-12.9-11.3l1.5-1.5c4.5,0,3.8,8.3,9.9,7.5C154.1,733.7,156.4,736.8,154.1,737.5z M156.8,673.1
		c3,1.5,7.6,0.7,11.4,2.2l1.5,1.5c-3.8,1.5-9.1-0.7-15.2-0.7C153.1,674.7,156.1,673.9,156.8,673.1z M136.5,687.6
		c1.5,1.5,3,3.8,5.3,1.5c-0.8-2.3,1.5-3.8,3-4.6c5.3,0,9.9,9.8,14.4,2.2c1.5,0,3.8-1.5,3.8,0.7c-5.3,3.8-3,9.9-1.4,15.2
		c2.3,1.5,2.3,3.8,1.5,6.1l-0.8,0.8c-4.6-2.2-10.6-6.8-9.9-14.3c-3-1.5-5.3-2.2-7.6,0.8l-6,10.6c-4.5,3.8-12.9,1.6-13.6,8.4
		c-3,5.3-9.8,0.1-12.9,5.4c-0.7,5.3,6.9,9.8,0.8,14.4c-5.3-5.3-7.7-15.1-15.2-19.6c-1.5,0-0.8-2.3-0.8-3c5.3-2.3,7.6,7.5,11.4,0.7
		L107,709l0.8,0.8c2.3-2.3,9.1,4.5,9.8-3.1c0-2.3-4.6-5.3-1.5-6.8c3,2.3,7.6,7.5,11.4,7.5c0-3.8,8.3-3.8,6.8-9.1
		c0-3-2.3-5.3-3.8-6.8l-4.5,4.6c-0.8-1.5-2.3-2.3-1.5-4.5C126.6,688.4,131.9,685.4,136.5,687.6z M128.8,680.1
		c-14.3,9.2-28.7,15.3-39.2,28.2c-4.6-1.5-0.8-5.3,0.7-7.6c4.5-3.8,11.3-7.6,15.8-13C112.9,684,122.8,675.6,128.8,680.1z
		 M45.3,647.9c-0.8-1.5,0-1.5,1.5-1.5c0.8-0.8,0.8,0.8,1.5,0.8c1.5-6.1,3.8,2.3,7.6,0c8.3-3.8,9-19,20.3-22.1
		c9.9,3,25.7-7.7,28.1,5.9c-0.7,11.4,6.2,21.2,7,32.5c4.5,0.7,6.1,5.3,3.8,8.3c-6,7.6-16.6,7.7-21.1,16c-5.3,3.1-6,8.4-12.1,9.2
		c0-6.1-6.1-11.3-3.1-17.4c-0.8-7.6-2.4-18.9-4.7-28.8C66.6,647.8,53.7,648.6,45.3,647.9z"/>
	<g class="st2">
		<path class="st3" d="M416,71.8h-16.2l25.3,34.4V86.3C425.2,72.6,419.1,71.8,416,71.8z"/>
		<path class="st3" d="M336.3,86.3v19.9l25.2-34.3h-16.1C342.4,71.8,336.3,72.6,336.3,86.3z"/>
		<path class="st3" d="M379.8,5.5c-59.3,0-107.4,48.1-107.4,107.4c0,59.3,48.1,107.4,107.4,107.4c59.3,0,107.4-48.1,107.4-107.4
			C487.2,53.6,439.1,5.5,379.8,5.5z M391.9,155.5l-11.1-14.9l-11.1,14.9h-24.1l19.6-26.1v-12.7h31.4v12.7l19.5,26.1H391.9z
			 M425.2,180.4v-67.8h-26.7l-17.7-24.1L363,112.6h-26.6v67.8h-31.5V69.9c0-8.2,9.8-17.8,25-17.8H365v-19h31.4v19h35.1
			c15.3,0,25,9.6,25,17.8v110.5H425.2z"/>
	</g>
	<path class="st0" d="M439.5,291.4c-7.9-8.5-14.7-10.9-33.7-7c-2.8,0.6-6.7,1.2-11.2,1.8c-0.6-9.2-1.5-17.5-2.7-23.5
		c2.9-0.9,5.2-1.7,6.5-2.2c7.2-3,11.4-2.4,16.1-2.1c4.7,0.3,5.7-5.5,6.3-8.7c0.6-3.2-7.8-5.5-12.1-9.4c-4.3-3.9-7.5-3.6-7.5-3.6
		c-2,0-12.9,9-25.8,16.8c-15.1,9.2-31.6,18.5-31.6,18.5l0.5,1.3c4,0.6,16-1.9,27.8-4.9c-0.3,4.3-0.8,11.9-1.6,20.9
		c-22.1,2.5-45.6,4.1-50.7,4.6c-0.7,0.1-2.1,0.2-1.6,2.5c0.7,3.5,13.1,10.8,30.4,14c4.8,0.9,12,0.9,19.9,0.3
		c-1.5,13.3-3.4,26.2-5.7,33.7c-0.7,2.3,2.7,7.5,4.9,8.6c2.2,1.1,18.5,8.9,20.3,9.7c1.8,0.7,8.2-0.1,8.3-2.8
		c0.1-2.7,0.4-25.9-0.5-52.2c11.5-1.6,21.1-3.4,24.2-3.9c7.6-1.3,1.4,4.7,15,4.7C448.5,308.5,447.4,299.9,439.5,291.4"/>
	<path class="st0" d="M339.9,395c0,0,26,5.6,68-9.4c10.1-3.6,12.2-4.8,20.9-1c8.7,3.7,26.3,18,27.1,18.3s1,10.1-2.2,10.6
		c-3.3,0.6-15.4,4.6-32.8-7.1c-2.9-1.9-10.8,5.1-44.3,5.1c-33.5,0-41.1-11.8-42.7-14.5C332.4,394.3,338.6,394.6,339.9,395"/>
	<path class="st0" d="M333.4,411.7c3-0.7,19.9,1.8,20.8,39.6c0.9,37-0.4,50.4-3.4,52.7c-3,2.3-7.5,5.3-19.1-5.2
		c-11.5-10.6-5.2-16.8-2.9-26.1c2.4-9.3,4.6-38.9,3.8-45.6C331.8,420.2,331.9,412.1,333.4,411.7"/>
	<path class="st0" d="M454.1,496.6c-1.4-6-13.4-14.2-10.1-17c3.2-2.8,10.3-13.8,10.3-20.5c0-6.7-18.7-25.7-22.7-29.8
		c-4-4.2-14.6,0.9-21.7,3.4c-7.2,2.5-26.4,4.2-26.4,4.2c-1.4-2.7-19-12.3-20.4-10.9c-2.8,2.7,3.5,7.6,2.4,32.1
		c-1.2,28.3-11.8,31.2-9,35.4c2.9,4.2,16.7,12.3,23.4,14.7c6.7,2.4,8.6-4.9,9.7-8.6c23,4.6,28.4-2.4,33.2-2.4
		c4.5,0,15.5,5.8,15.5,5.8C450.4,507.4,455.5,502.6,454.1,496.6 M398.9,478c-2.4,0.2-5.5,0.1-8.6-0.3c-0.1-1.4-0.1-2.9-0.2-4.6
		c-0.2-5.1-0.7-9.8-1.4-13.9c21.2,6.1,28.9-5.8,31.4-7.3c2.7-1.6,8.6-2.8,9.3,6.4C430.2,467.5,407.2,477.3,398.9,478"/>
	<path class="st0" d="M424.8,566.7c15.8,7.6,22.9,6.3,25.3,2.6c2.4-3.7-3.8-10.2-3.8-10.2c3-1.3,4.9-8.3,4.7-8.1
		c-0.1,0.2,0.5-6-1.7-6c-2.2,0-13.8-6.2-15.9-7c-2.1-0.8-7.4-5.4-11.4-4.2c-8.3,2.2-39.6,8.7-53.7,9.1c-14.8,0.4-21.6-1.3-22.6,0
		c-2.1,2.9,16.8,10.3,24.9,12.7c8.1,2.4,19.5,0.6,26-0.7c6.5-1.3,18-5.2,21.1-6.3c3-1.1,9.4-0.6,4.3,2.6c-8.7,5.4-52.8,7.8-68.1,8.5
		c-1.7-2.3-18.5-14.3-20.3-14.8c-1.9-0.5-4.8-0.4-4.6,1.1c3.2,35.6-5.9,93.4-6,97.1c-0.1,3.7,10.7,9.3,17.3,13.2
		c6.6,3.9,5.8,2.3,10.4-1.5c2.8-2.3,3.7-37,3.8-63.8c2.8-0.1,8.3-0.4,14.5-0.7c-1.9,2-4.1,4.2-5.7,5.3c-3.5,2.4-9,10.8,2.9,14.5
		c4.9,1.5,12.6,2.3,21.3,1.9l0.3,5.2c-2.6,0.2-5.1,0.5-7.2,0.8c-11.6,1.9-18.9,0.8-18.9,0.8c-1.6,0-2.3-0.5-1.8,2.2
		c0.5,2.6,12,11.3,14.2,12.1c1.3,0.5,6.5,0.1,14.6-0.1l0.6,11c-13.3,1-25.9,1.8-27.8,2c-1.3,0.2-3.2,1.5,0.6,6.1
		c4.5,5.4,8.7,7.7,10.3,7.6c14.8-1.5,50.6-0.6,64.9-1.2c14.3-0.6,13.6-5.5,12.8-7.8c-0.8-2.4-6.9-6-10.8-9.2
		c-3.9-3.2-7.5-2.4-18.8-0.4c-2.3,0.4-6,0.8-10.4,1.2c-0.1-2.7-0.4-5.9-0.7-9.2c0.1,0,0.3,0,0.4,0c19.4,0.8,30.9-2,33.1-5.4
		c2.2-3.4-6.1-8.2-9.2-10.3c-4.3-2.9-9.9-5.9-13.4-4.1c-2.7,1.4-7.5,2.1-13,2.7c-0.3-2.3-0.6-4.4-0.9-6.3c5.9-1.3,11.8-3.1,17.4-5.5
		c3.1,2.4,6.5,4.5,9.9,5.9c5.8,2.4,18.1,3.7,13.4-4.8c-4.6-8.3-7.8-11.9-9.1-15.8c3.5-1.6,7.3-3.9,7.6-5.4c0.5-2.4-7.9-4.7-13.9-8.9
		c-6.1-4.2-15.8-4.2-22-1.8c-5.5,2.1-45.8,4-55.2,4.5c0-2,0-3.9,0-5.6C361.3,570.7,422.1,565.4,424.8,566.7 M399.7,589.7
		c3.2,0.3,7.5,0.6,12.3,0.8c0.2,0.5,0.4,1,0.7,1.5c-15.4,8.8-28.6,6-32.5,4.8c-2.4-0.8-0.6-4.3,1.3-7
		C389.2,589.5,396.3,589.4,399.7,589.7"/>
</g>
</svg>
