<svg xmlns="http://www.w3.org/2000/svg" viewBox="0 0 150 150"><path d="M19.339 114.639c8.997 0 48.823-.54 57.035-.54 13.285-.1 48.43-.1 58.8-.748 1.934-.108 10.93-1.073 12.696-1.073.981 0 2.13.208 2.13.965 0 1.505-3.7 4.406-5.661 5.81-3.307 2.361-3.7 2.577-6.054 2.577-3.503 0-18.75-1.289-21.861-1.397-16.031-.432-39.07-.432-45.32-.432-17.377 0-31.839 0-48.627 1.289-2.747.216-15.247 1.937-17.769 1.937-2.354 0-4.709-.216-4.709-2.045 0-1.613 2.354-6.559 6.642-7.523 4.71 1.18 8.017 1.18 12.698 1.18zm0-42.532c8.997 0 48.823-.54 57.035-.54 13.285-.1 48.43-.1 58.8-.748 1.934-.108 10.93-1.073 12.696-1.073.981 0 2.13.208 2.13.965 0 1.505-3.7 4.406-5.661 5.81-3.307 2.361-3.7 2.577-6.054 2.577-3.503 0-18.75-1.289-21.861-1.397-16.031-.432-39.07-.432-45.32-.432-17.377 0-31.839 0-48.627 1.289-2.747.216-15.247 1.937-17.769 1.937C2.354 80.494 0 80.278 0 78.45c0-1.613 2.354-6.559 6.642-7.523 4.709 1.18 8.016 1.18 12.697 1.18zm0-42.772c8.997 0 48.823-.54 57.035-.54 13.285-.1 48.43-.1 58.8-.748 1.934-.108 10.93-1.073 12.696-1.073.981 0 2.13.208 2.13.965 0 1.505-3.7 4.406-5.661 5.81-3.307 2.361-3.7 2.577-6.054 2.577-3.503 0-18.75-1.289-21.861-1.397-16.031-.432-39.07-.432-45.32-.432-17.377 0-31.839 0-48.627 1.289-2.747.216-15.247 1.937-17.769 1.937C2.354 37.722 0 37.506 0 35.678c0-1.613 2.354-6.559 6.642-7.523 4.709 1.18 8.016 1.18 12.697 1.18z"/></svg>