<?xml version="1.0" encoding="utf-8"?>
<!-- Generator: Adobe Illustrator 26.3.1, SVG Export Plug-In . SVG Version: 6.00 Build 0)  -->
<svg version="1.1" id="レイヤー_1" xmlns="http://www.w3.org/2000/svg" xmlns:xlink="http://www.w3.org/1999/xlink" x="0px"
	 y="0px" viewBox="0 0 150 150" style="enable-background:new 0 0 150 150;" xml:space="preserve">
<style type="text/css">
	.st0{fill:#000000;}
</style>
<g>
	<g>
		<path class="st0" d="M19.339,114.639c8.997,0,48.823-0.54,57.035-0.54c13.285-0.1,48.43-0.1,58.8-0.748
			c1.934-0.108,10.93-1.073,12.696-1.073c0.981,0,2.13,0.208,2.13,0.965c0,1.505-3.7,4.406-5.661,5.81
			c-3.307,2.361-3.7,2.577-6.054,2.577c-3.503,0-18.75-1.289-21.861-1.397c-16.031-0.432-39.07-0.432-45.32-0.432
			c-17.377,0-31.839,0-48.627,1.289c-2.747,0.216-15.247,1.937-17.769,1.937c-2.354,0-4.709-0.216-4.709-2.045
			c0-1.613,2.354-6.559,6.642-7.523C11.351,114.639,14.658,114.639,19.339,114.639z"/>
	</g>
	<g>
		<path class="st0" d="M19.339,72.107c8.997,0,48.823-0.54,57.035-0.54c13.285-0.1,48.43-0.1,58.8-0.748
			c1.934-0.108,10.93-1.073,12.696-1.073c0.981,0,2.13,0.208,2.13,0.965c0,1.505-3.7,4.406-5.661,5.81
			c-3.307,2.361-3.7,2.577-6.054,2.577c-3.503,0-18.75-1.289-21.861-1.397c-16.031-0.432-39.07-0.432-45.32-0.432
			c-17.377,0-31.839,0-48.627,1.289c-2.747,0.216-15.247,1.937-17.769,1.937C2.354,80.494,0,80.278,0,78.45
			c0-1.613,2.354-6.559,6.642-7.523C11.351,72.107,14.658,72.107,19.339,72.107z"/>
	</g>
	<g>
		<path class="st0" d="M19.339,29.335c8.997,0,48.823-0.54,57.035-0.54c13.285-0.1,48.43-0.1,58.8-0.748
			c1.934-0.108,10.93-1.073,12.696-1.073c0.981,0,2.13,0.208,2.13,0.965c0,1.505-3.7,4.406-5.661,5.81
			c-3.307,2.361-3.7,2.577-6.054,2.577c-3.503,0-18.75-1.289-21.861-1.397c-16.031-0.432-39.07-0.432-45.32-0.432
			c-17.377,0-31.839,0-48.627,1.289c-2.747,0.216-15.247,1.937-17.769,1.937C2.354,37.722,0,37.506,0,35.678
			c0-1.613,2.354-6.559,6.642-7.523C11.351,29.335,14.658,29.335,19.339,29.335z"/>
	</g>
</g>
</svg>
