<?xml version="1.0" encoding="utf-8"?>
<!-- Generator: Adobe Illustrator 24.1.3, SVG Export Plug-In . SVG Version: 6.00 Build 0)  -->
<svg version="1.1" id="レイヤー_1" xmlns="http://www.w3.org/2000/svg" xmlns:xlink="http://www.w3.org/1999/xlink" x="0px"
	 y="0px" viewBox="0 0 100 100" style="enable-background:new 0 0 100 100;" xml:space="preserve">
<style type="text/css">
	.st0{fill-rule:evenodd;clip-rule:evenodd;}
</style>
<g>
	<path class="st0" d="M50,0.9c-13.3,0-15,0.1-20.2,0.3C24.6,1.5,21,2.3,17.9,3.5c-3.3,1.2-6.2,3.2-8.7,5.7c-2.5,2.4-4.4,5.4-5.7,8.7
		c-1.2,3.1-2,6.7-2.3,11.9C1.1,35,1,36.6,1,50s0.1,15,0.3,20.2c0.2,5.2,1.1,8.8,2.3,11.9c1.2,3.3,3.2,6.2,5.7,8.7
		c2.7,2.7,5.5,4.4,8.7,5.7c3.1,1.2,6.7,2,11.9,2.3C35.1,98.9,36.7,99,50,99s15-0.1,20.2-0.3c5.2-0.2,8.8-1.1,11.9-2.3
		c3.3-1.2,6.2-3.2,8.7-5.7c2.7-2.7,4.4-5.5,5.7-8.7c1.2-3.1,2-6.7,2.3-11.9c0.2-5.2,0.3-6.9,0.3-20.2S99,35,98.8,29.7
		c-0.2-5.2-1.1-8.8-2.3-11.9c-1.2-3.3-3.2-6.2-5.7-8.7c-2.4-2.5-5.4-4.4-8.7-5.7c-3.1-1.2-6.7-2-11.9-2.3C65,1,63.4,0.9,50,0.9z
		 M50,9.8c13.1,0,14.6,0.1,19.8,0.3c4.8,0.2,7.4,1,9.1,1.7c2.3,0.9,3.9,2,5.6,3.7c1.7,1.7,2.8,3.4,3.7,5.6c0.7,1.7,1.5,4.3,1.7,9.1
		c0.2,5.2,0.3,6.7,0.3,19.8S90.2,64.6,90,69.8c-0.2,4.8-1,7.4-1.7,9.1c-0.8,2.1-2,4.1-3.7,5.6c-1.7,1.7-3.4,2.8-5.6,3.7
		c-1.7,0.7-4.3,1.5-9.1,1.7c-5.2,0.2-6.7,0.3-19.8,0.3s-14.6-0.1-19.8-0.3c-4.8-0.2-7.4-1-9.1-1.7c-2.1-0.8-4.1-2-5.6-3.7
		c-1.6-1.6-2.9-3.5-3.7-5.6c-0.7-1.7-1.5-4.3-1.7-9.1C9.9,64.6,9.8,63.1,9.8,50s0.1-14.6,0.3-19.8c0.2-4.8,1-7.4,1.7-9.1
		c0.9-2.3,2-3.9,3.7-5.6c1.7-1.7,3.4-2.8,5.6-3.7c1.7-0.7,4.3-1.5,9.1-1.7C35.4,9.8,36.9,9.8,50,9.8z"/>
	<path class="st0" d="M50,66.3c-9,0-16.4-7.3-16.4-16.4S41,33.6,50,33.6c0,0,0,0,0,0c9,0,16.4,7.3,16.4,16.4
		C66.4,59,59.1,66.3,50,66.3z M50,24.8c-13.9,0-25.2,11.3-25.2,25.2c0,13.9,11.3,25.2,25.2,25.2c0,0,0,0,0,0
		C64,75.2,75.2,63.9,75.2,50C75.2,36,64,24.8,50,24.8z M82.6,24.3c0,3.3-2.7,6-6,6s-6-2.7-6-6s2.7-6,6-6S82.6,21,82.6,24.3"/>
</g>
</svg>
